<?xml version="1.0" standalone="no"?>
 <!DOCTYPE svg PUBLIC "-//W3C//DTD SVG 1.1//EN" 
 "http://www.w3.org/Graphics/SVG/1.1/DTD/svg11.dtd"> 
<svg
  xmlns:svg="http://www.w3.org/2000/svg"
  xmlns="http://www.w3.org/2000/svg"
  xmlns:xlink="http://www.w3.org/1999/xlink"
  version="1.1"
  width="41.998900cm" height="29.700220cm" viewBox="0 0 419989000 297002200">
<title>SVG Picture created as 555kickTHCfrontPannel-Edge_Cuts.svg date 2022/07/01 23:11:19 </title>
  <desc>Picture generated by PCBNEW </desc>
<g style="fill:#000000; fill-opacity:1.000000;stroke:#000000; stroke-opacity:1.000000;
stroke-linecap:round; stroke-linejoin:round;"
 transform="translate(0 0) scale(1 1)">
</g>
<g style="fill:#000000; fill-opacity:0.0; 
stroke:#000000; stroke-width:0.000000; stroke-opacity:1; 
stroke-linecap:round; stroke-linejoin:round;">
</g>
<g style="fill:#000000; fill-opacity:0.0; 
stroke:#000000; stroke-width:21200.000000; stroke-opacity:1; 
stroke-linecap:round; stroke-linejoin:round;">
</g>
<g style="fill:#000000; fill-opacity:0.0; 
stroke:#000000; stroke-width:150000.000000; stroke-opacity:1; 
stroke-linecap:round; stroke-linejoin:round;">
<rect x="299989000.000000" y="253002200.000000" width="108000000.000000" height="32000000.000000" rx="0.000000" />
</g>
<g style="fill:#000000; fill-opacity:0.0; 
stroke:#000000; stroke-width:21200.000000; stroke-opacity:1; 
stroke-linecap:round; stroke-linejoin:round;">
</g>
<g style="fill:#000000; fill-opacity:0.0; 
stroke:#000000; stroke-width:150000.000000; stroke-opacity:1; 
stroke-linecap:round; stroke-linejoin:round;">
<rect x="10000000.000000" y="10000000.000000" width="399989000.000000" height="277002200.000000" rx="0.000000" />
</g>
<g style="fill:#000000; fill-opacity:0.0; 
stroke:#000000; stroke-width:21200.000000; stroke-opacity:1; 
stroke-linecap:round; stroke-linejoin:round;">
</g>
<g style="fill:#000000; fill-opacity:0.0; 
stroke:#000000; stroke-width:150000.000000; stroke-opacity:1; 
stroke-linecap:round; stroke-linejoin:round;">
<rect x="12000000.000000" y="12000000.000000" width="395989000.000000" height="273002200.000000" rx="0.000000" />
</g>
<g style="fill:#000000; fill-opacity:0.0; 
stroke:#000000; stroke-width:21200.000000; stroke-opacity:1; 
stroke-linecap:round; stroke-linejoin:round;">
</g>
<g style="fill:#000000; fill-opacity:0.0; 
stroke:#000000; stroke-width:150000.000000; stroke-opacity:1; 
stroke-linecap:round; stroke-linejoin:round;">
<path d="M60000000 12000000
L60000000 10000000
" />
</g>
<g style="fill:#000000; fill-opacity:0.0; 
stroke:#000000; stroke-width:21200.000000; stroke-opacity:1; 
stroke-linecap:round; stroke-linejoin:round;">
</g>
<g style="fill:#000000; fill-opacity:0.0; 
stroke:#000000; stroke-width:150000.000000; stroke-opacity:1; 
stroke-linecap:round; stroke-linejoin:round;">
<path d="M110000000 12000000
L110000000 10000000
" />
</g>
<g style="fill:#000000; fill-opacity:0.0; 
stroke:#000000; stroke-width:21200.000000; stroke-opacity:1; 
stroke-linecap:round; stroke-linejoin:round;">
</g>
<g style="fill:#000000; fill-opacity:0.0; 
stroke:#000000; stroke-width:150000.000000; stroke-opacity:1; 
stroke-linecap:round; stroke-linejoin:round;">
<path d="M160000000 12000000
L160000000 10000000
" />
</g>
<g style="fill:#000000; fill-opacity:0.0; 
stroke:#000000; stroke-width:21200.000000; stroke-opacity:1; 
stroke-linecap:round; stroke-linejoin:round;">
</g>
<g style="fill:#000000; fill-opacity:0.0; 
stroke:#000000; stroke-width:150000.000000; stroke-opacity:1; 
stroke-linecap:round; stroke-linejoin:round;">
<path d="M210000000 12000000
L210000000 10000000
" />
</g>
<g style="fill:#000000; fill-opacity:0.0; 
stroke:#000000; stroke-width:21200.000000; stroke-opacity:1; 
stroke-linecap:round; stroke-linejoin:round;">
</g>
<g style="fill:#000000; fill-opacity:0.0; 
stroke:#000000; stroke-width:150000.000000; stroke-opacity:1; 
stroke-linecap:round; stroke-linejoin:round;">
<path d="M260000000 12000000
L260000000 10000000
" />
</g>
<g style="fill:#000000; fill-opacity:0.0; 
stroke:#000000; stroke-width:21200.000000; stroke-opacity:1; 
stroke-linecap:round; stroke-linejoin:round;">
</g>
<g style="fill:#000000; fill-opacity:0.0; 
stroke:#000000; stroke-width:150000.000000; stroke-opacity:1; 
stroke-linecap:round; stroke-linejoin:round;">
<path d="M310000000 12000000
L310000000 10000000
" />
</g>
<g style="fill:#000000; fill-opacity:0.0; 
stroke:#000000; stroke-width:21200.000000; stroke-opacity:1; 
stroke-linecap:round; stroke-linejoin:round;">
</g>
<g style="fill:#000000; fill-opacity:0.0; 
stroke:#000000; stroke-width:150000.000000; stroke-opacity:1; 
stroke-linecap:round; stroke-linejoin:round;">
<path d="M360000000 12000000
L360000000 10000000
" />
</g>
<g style="fill:#000000; fill-opacity:0.0; 
stroke:#000000; stroke-width:21200.000000; stroke-opacity:1; 
stroke-linecap:round; stroke-linejoin:round;">
</g>
<g style="fill:#000000; fill-opacity:0.0; 
stroke:#000000; stroke-width:150000.000000; stroke-opacity:1; 
stroke-linecap:round; stroke-linejoin:round;">
<text x="35000000.000000" y="11650000.000000"
textLength="1433095.000000" font-size="1733333.000000" lengthAdjust="spacingAndGlyphs"
text-anchor="start" opacity="0">1</text>
<g class="stroked-text"><desc>1</desc>
<path d="M36065476 11588095
L35322619 11588095
" />
<path d="M35694047 11588095
L35694047 10288095
L35570238 10473809
L35446428 10597619
L35322619 10659523
" />
</g></g>
<g style="fill:#000000; fill-opacity:0.0; 
stroke:#000000; stroke-width:21200.000000; stroke-opacity:1; 
stroke-linecap:round; stroke-linejoin:round;">
</g>
<g style="fill:#000000; fill-opacity:0.0; 
stroke:#000000; stroke-width:150000.000000; stroke-opacity:1; 
stroke-linecap:round; stroke-linejoin:round;">
<text x="85000000.000000" y="11650000.000000"
textLength="1388095.000000" font-size="1733333.000000" lengthAdjust="spacingAndGlyphs"
text-anchor="start" opacity="0">2</text>
<g class="stroked-text"><desc>2</desc>
<path d="M85322619 10411904
L85384523 10350000
L85508333 10288095
L85817857 10288095
L85941666 10350000
L86003571 10411904
L86065476 10535714
L86065476 10659523
L86003571 10845238
L85260714 11588095
L86065476 11588095
" />
</g></g>
<g style="fill:#000000; fill-opacity:0.0; 
stroke:#000000; stroke-width:21200.000000; stroke-opacity:1; 
stroke-linecap:round; stroke-linejoin:round;">
</g>
<g style="fill:#000000; fill-opacity:0.0; 
stroke:#000000; stroke-width:150000.000000; stroke-opacity:1; 
stroke-linecap:round; stroke-linejoin:round;">
<text x="135000000.000000" y="11650000.000000"
textLength="1388095.000000" font-size="1733333.000000" lengthAdjust="spacingAndGlyphs"
text-anchor="start" opacity="0">3</text>
<g class="stroked-text"><desc>3</desc>
<path d="M135260714 10288095
L136065476 10288095
L135632142 10783333
L135817857 10783333
L135941666 10845238
L136003571 10907142
L136065476 11030952
L136065476 11340476
L136003571 11464285
L135941666 11526190
L135817857 11588095
L135446428 11588095
L135322619 11526190
L135260714 11464285
" />
</g></g>
<g style="fill:#000000; fill-opacity:0.0; 
stroke:#000000; stroke-width:21200.000000; stroke-opacity:1; 
stroke-linecap:round; stroke-linejoin:round;">
</g>
<g style="fill:#000000; fill-opacity:0.0; 
stroke:#000000; stroke-width:150000.000000; stroke-opacity:1; 
stroke-linecap:round; stroke-linejoin:round;">
<text x="185000000.000000" y="11650000.000000"
textLength="1388095.000000" font-size="1733333.000000" lengthAdjust="spacingAndGlyphs"
text-anchor="start" opacity="0">4</text>
<g class="stroked-text"><desc>4</desc>
<path d="M185941666 10721428
L185941666 11588095
" />
<path d="M185632142 10226190
L185322619 11154761
L186127380 11154761
" />
</g></g>
<g style="fill:#000000; fill-opacity:0.0; 
stroke:#000000; stroke-width:21200.000000; stroke-opacity:1; 
stroke-linecap:round; stroke-linejoin:round;">
</g>
<g style="fill:#000000; fill-opacity:0.0; 
stroke:#000000; stroke-width:150000.000000; stroke-opacity:1; 
stroke-linecap:round; stroke-linejoin:round;">
<text x="235000000.000000" y="11650000.000000"
textLength="1388095.000000" font-size="1733333.000000" lengthAdjust="spacingAndGlyphs"
text-anchor="start" opacity="0">5</text>
<g class="stroked-text"><desc>5</desc>
<path d="M236003571 10288095
L235384523 10288095
L235322619 10907142
L235384523 10845238
L235508333 10783333
L235817857 10783333
L235941666 10845238
L236003571 10907142
L236065476 11030952
L236065476 11340476
L236003571 11464285
L235941666 11526190
L235817857 11588095
L235508333 11588095
L235384523 11526190
L235322619 11464285
" />
</g></g>
<g style="fill:#000000; fill-opacity:0.0; 
stroke:#000000; stroke-width:21200.000000; stroke-opacity:1; 
stroke-linecap:round; stroke-linejoin:round;">
</g>
<g style="fill:#000000; fill-opacity:0.0; 
stroke:#000000; stroke-width:150000.000000; stroke-opacity:1; 
stroke-linecap:round; stroke-linejoin:round;">
<text x="285000000.000000" y="11650000.000000"
textLength="1388095.000000" font-size="1733333.000000" lengthAdjust="spacingAndGlyphs"
text-anchor="start" opacity="0">6</text>
<g class="stroked-text"><desc>6</desc>
<path d="M285941666 10288095
L285694047 10288095
L285570238 10350000
L285508333 10411904
L285384523 10597619
L285322619 10845238
L285322619 11340476
L285384523 11464285
L285446428 11526190
L285570238 11588095
L285817857 11588095
L285941666 11526190
L286003571 11464285
L286065476 11340476
L286065476 11030952
L286003571 10907142
L285941666 10845238
L285817857 10783333
L285570238 10783333
L285446428 10845238
L285384523 10907142
L285322619 11030952
" />
</g></g>
<g style="fill:#000000; fill-opacity:0.0; 
stroke:#000000; stroke-width:21200.000000; stroke-opacity:1; 
stroke-linecap:round; stroke-linejoin:round;">
</g>
<g style="fill:#000000; fill-opacity:0.0; 
stroke:#000000; stroke-width:150000.000000; stroke-opacity:1; 
stroke-linecap:round; stroke-linejoin:round;">
<text x="335000000.000000" y="11650000.000000"
textLength="1388095.000000" font-size="1733333.000000" lengthAdjust="spacingAndGlyphs"
text-anchor="start" opacity="0">7</text>
<g class="stroked-text"><desc>7</desc>
<path d="M335260714 10288095
L336127380 10288095
L335570238 11588095
" />
</g></g>
<g style="fill:#000000; fill-opacity:0.0; 
stroke:#000000; stroke-width:21200.000000; stroke-opacity:1; 
stroke-linecap:round; stroke-linejoin:round;">
</g>
<g style="fill:#000000; fill-opacity:0.0; 
stroke:#000000; stroke-width:150000.000000; stroke-opacity:1; 
stroke-linecap:round; stroke-linejoin:round;">
<text x="385000000.000000" y="11650000.000000"
textLength="1388095.000000" font-size="1733333.000000" lengthAdjust="spacingAndGlyphs"
text-anchor="start" opacity="0">8</text>
<g class="stroked-text"><desc>8</desc>
<path d="M385570238 10845238
L385446428 10783333
L385384523 10721428
L385322619 10597619
L385322619 10535714
L385384523 10411904
L385446428 10350000
L385570238 10288095
L385817857 10288095
L385941666 10350000
L386003571 10411904
L386065476 10535714
L386065476 10597619
L386003571 10721428
L385941666 10783333
L385817857 10845238
L385570238 10845238
L385446428 10907142
L385384523 10969047
L385322619 11092857
L385322619 11340476
L385384523 11464285
L385446428 11526190
L385570238 11588095
L385817857 11588095
L385941666 11526190
L386003571 11464285
L386065476 11340476
L386065476 11092857
L386003571 10969047
L385941666 10907142
L385817857 10845238
" />
</g></g>
<g style="fill:#000000; fill-opacity:0.0; 
stroke:#000000; stroke-width:21200.000000; stroke-opacity:1; 
stroke-linecap:round; stroke-linejoin:round;">
</g>
<g style="fill:#000000; fill-opacity:0.0; 
stroke:#000000; stroke-width:150000.000000; stroke-opacity:1; 
stroke-linecap:round; stroke-linejoin:round;">
<path d="M60000000 285002200
L60000000 287002200
" />
</g>
<g style="fill:#000000; fill-opacity:0.0; 
stroke:#000000; stroke-width:21200.000000; stroke-opacity:1; 
stroke-linecap:round; stroke-linejoin:round;">
</g>
<g style="fill:#000000; fill-opacity:0.0; 
stroke:#000000; stroke-width:150000.000000; stroke-opacity:1; 
stroke-linecap:round; stroke-linejoin:round;">
<path d="M110000000 285002200
L110000000 287002200
" />
</g>
<g style="fill:#000000; fill-opacity:0.0; 
stroke:#000000; stroke-width:21200.000000; stroke-opacity:1; 
stroke-linecap:round; stroke-linejoin:round;">
</g>
<g style="fill:#000000; fill-opacity:0.0; 
stroke:#000000; stroke-width:150000.000000; stroke-opacity:1; 
stroke-linecap:round; stroke-linejoin:round;">
<path d="M160000000 285002200
L160000000 287002200
" />
</g>
<g style="fill:#000000; fill-opacity:0.0; 
stroke:#000000; stroke-width:21200.000000; stroke-opacity:1; 
stroke-linecap:round; stroke-linejoin:round;">
</g>
<g style="fill:#000000; fill-opacity:0.0; 
stroke:#000000; stroke-width:150000.000000; stroke-opacity:1; 
stroke-linecap:round; stroke-linejoin:round;">
<path d="M210000000 285002200
L210000000 287002200
" />
</g>
<g style="fill:#000000; fill-opacity:0.0; 
stroke:#000000; stroke-width:21200.000000; stroke-opacity:1; 
stroke-linecap:round; stroke-linejoin:round;">
</g>
<g style="fill:#000000; fill-opacity:0.0; 
stroke:#000000; stroke-width:150000.000000; stroke-opacity:1; 
stroke-linecap:round; stroke-linejoin:round;">
<path d="M260000000 285002200
L260000000 287002200
" />
</g>
<g style="fill:#000000; fill-opacity:0.0; 
stroke:#000000; stroke-width:21200.000000; stroke-opacity:1; 
stroke-linecap:round; stroke-linejoin:round;">
</g>
<g style="fill:#000000; fill-opacity:0.0; 
stroke:#000000; stroke-width:150000.000000; stroke-opacity:1; 
stroke-linecap:round; stroke-linejoin:round;">
<path d="M310000000 285002200
L310000000 287002200
" />
</g>
<g style="fill:#000000; fill-opacity:0.0; 
stroke:#000000; stroke-width:21200.000000; stroke-opacity:1; 
stroke-linecap:round; stroke-linejoin:round;">
</g>
<g style="fill:#000000; fill-opacity:0.0; 
stroke:#000000; stroke-width:150000.000000; stroke-opacity:1; 
stroke-linecap:round; stroke-linejoin:round;">
<path d="M360000000 285002200
L360000000 287002200
" />
</g>
<g style="fill:#000000; fill-opacity:0.0; 
stroke:#000000; stroke-width:21200.000000; stroke-opacity:1; 
stroke-linecap:round; stroke-linejoin:round;">
</g>
<g style="fill:#000000; fill-opacity:0.0; 
stroke:#000000; stroke-width:150000.000000; stroke-opacity:1; 
stroke-linecap:round; stroke-linejoin:round;">
<text x="35000000.000000" y="286652200.000000"
textLength="1388095.000000" font-size="1733333.000000" lengthAdjust="spacingAndGlyphs"
text-anchor="start" opacity="0">1</text>
<g class="stroked-text"><desc>1</desc>
<path d="M36065476 286590295
L35322619 286590295
" />
<path d="M35694047 286590295
L35694047 285290295
L35570238 285476009
L35446428 285599819
L35322619 285661723
" />
</g></g>
<g style="fill:#000000; fill-opacity:0.0; 
stroke:#000000; stroke-width:21200.000000; stroke-opacity:1; 
stroke-linecap:round; stroke-linejoin:round;">
</g>
<g style="fill:#000000; fill-opacity:0.0; 
stroke:#000000; stroke-width:150000.000000; stroke-opacity:1; 
stroke-linecap:round; stroke-linejoin:round;">
<text x="85000000.000000" y="286652200.000000"
textLength="1388095.000000" font-size="1733333.000000" lengthAdjust="spacingAndGlyphs"
text-anchor="start" opacity="0">2</text>
<g class="stroked-text"><desc>2</desc>
<path d="M85322619 285414104
L85384523 285352200
L85508333 285290295
L85817857 285290295
L85941666 285352200
L86003571 285414104
L86065476 285537914
L86065476 285661723
L86003571 285847438
L85260714 286590295
L86065476 286590295
" />
</g></g>
<g style="fill:#000000; fill-opacity:0.0; 
stroke:#000000; stroke-width:21200.000000; stroke-opacity:1; 
stroke-linecap:round; stroke-linejoin:round;">
</g>
<g style="fill:#000000; fill-opacity:0.0; 
stroke:#000000; stroke-width:150000.000000; stroke-opacity:1; 
stroke-linecap:round; stroke-linejoin:round;">
<text x="135000000.000000" y="286652200.000000"
textLength="1388095.000000" font-size="1733333.000000" lengthAdjust="spacingAndGlyphs"
text-anchor="start" opacity="0">3</text>
<g class="stroked-text"><desc>3</desc>
<path d="M135260714 285290295
L136065476 285290295
L135632142 285785533
L135817857 285785533
L135941666 285847438
L136003571 285909342
L136065476 286033152
L136065476 286342676
L136003571 286466485
L135941666 286528390
L135817857 286590295
L135446428 286590295
L135322619 286528390
L135260714 286466485
" />
</g></g>
<g style="fill:#000000; fill-opacity:0.0; 
stroke:#000000; stroke-width:21200.000000; stroke-opacity:1; 
stroke-linecap:round; stroke-linejoin:round;">
</g>
<g style="fill:#000000; fill-opacity:0.0; 
stroke:#000000; stroke-width:150000.000000; stroke-opacity:1; 
stroke-linecap:round; stroke-linejoin:round;">
<text x="185000000.000000" y="286652200.000000"
textLength="1388095.000000" font-size="1733333.000000" lengthAdjust="spacingAndGlyphs"
text-anchor="start" opacity="0">4</text>
<g class="stroked-text"><desc>4</desc>
<path d="M185941666 285723628
L185941666 286590295
" />
<path d="M185632142 285228390
L185322619 286156961
L186127380 286156961
" />
</g></g>
<g style="fill:#000000; fill-opacity:0.0; 
stroke:#000000; stroke-width:21200.000000; stroke-opacity:1; 
stroke-linecap:round; stroke-linejoin:round;">
</g>
<g style="fill:#000000; fill-opacity:0.0; 
stroke:#000000; stroke-width:150000.000000; stroke-opacity:1; 
stroke-linecap:round; stroke-linejoin:round;">
<text x="235000000.000000" y="286652200.000000"
textLength="1388095.000000" font-size="1733333.000000" lengthAdjust="spacingAndGlyphs"
text-anchor="start" opacity="0">5</text>
<g class="stroked-text"><desc>5</desc>
<path d="M236003571 285290295
L235384523 285290295
L235322619 285909342
L235384523 285847438
L235508333 285785533
L235817857 285785533
L235941666 285847438
L236003571 285909342
L236065476 286033152
L236065476 286342676
L236003571 286466485
L235941666 286528390
L235817857 286590295
L235508333 286590295
L235384523 286528390
L235322619 286466485
" />
</g></g>
<g style="fill:#000000; fill-opacity:0.0; 
stroke:#000000; stroke-width:21200.000000; stroke-opacity:1; 
stroke-linecap:round; stroke-linejoin:round;">
</g>
<g style="fill:#000000; fill-opacity:0.0; 
stroke:#000000; stroke-width:150000.000000; stroke-opacity:1; 
stroke-linecap:round; stroke-linejoin:round;">
<text x="285000000.000000" y="286652200.000000"
textLength="1388095.000000" font-size="1733333.000000" lengthAdjust="spacingAndGlyphs"
text-anchor="start" opacity="0">6</text>
<g class="stroked-text"><desc>6</desc>
<path d="M285941666 285290295
L285694047 285290295
L285570238 285352200
L285508333 285414104
L285384523 285599819
L285322619 285847438
L285322619 286342676
L285384523 286466485
L285446428 286528390
L285570238 286590295
L285817857 286590295
L285941666 286528390
L286003571 286466485
L286065476 286342676
L286065476 286033152
L286003571 285909342
L285941666 285847438
L285817857 285785533
L285570238 285785533
L285446428 285847438
L285384523 285909342
L285322619 286033152
" />
</g></g>
<g style="fill:#000000; fill-opacity:0.0; 
stroke:#000000; stroke-width:21200.000000; stroke-opacity:1; 
stroke-linecap:round; stroke-linejoin:round;">
</g>
<g style="fill:#000000; fill-opacity:0.0; 
stroke:#000000; stroke-width:150000.000000; stroke-opacity:1; 
stroke-linecap:round; stroke-linejoin:round;">
<text x="335000000.000000" y="286652200.000000"
textLength="1388095.000000" font-size="1733333.000000" lengthAdjust="spacingAndGlyphs"
text-anchor="start" opacity="0">7</text>
<g class="stroked-text"><desc>7</desc>
<path d="M335260714 285290295
L336127380 285290295
L335570238 286590295
" />
</g></g>
<g style="fill:#000000; fill-opacity:0.0; 
stroke:#000000; stroke-width:21200.000000; stroke-opacity:1; 
stroke-linecap:round; stroke-linejoin:round;">
</g>
<g style="fill:#000000; fill-opacity:0.0; 
stroke:#000000; stroke-width:150000.000000; stroke-opacity:1; 
stroke-linecap:round; stroke-linejoin:round;">
<text x="385000000.000000" y="286652200.000000"
textLength="1388095.000000" font-size="1733333.000000" lengthAdjust="spacingAndGlyphs"
text-anchor="start" opacity="0">8</text>
<g class="stroked-text"><desc>8</desc>
<path d="M385570238 285847438
L385446428 285785533
L385384523 285723628
L385322619 285599819
L385322619 285537914
L385384523 285414104
L385446428 285352200
L385570238 285290295
L385817857 285290295
L385941666 285352200
L386003571 285414104
L386065476 285537914
L386065476 285599819
L386003571 285723628
L385941666 285785533
L385817857 285847438
L385570238 285847438
L385446428 285909342
L385384523 285971247
L385322619 286095057
L385322619 286342676
L385384523 286466485
L385446428 286528390
L385570238 286590295
L385817857 286590295
L385941666 286528390
L386003571 286466485
L386065476 286342676
L386065476 286095057
L386003571 285971247
L385941666 285909342
L385817857 285847438
" />
</g></g>
<g style="fill:#000000; fill-opacity:0.0; 
stroke:#000000; stroke-width:21200.000000; stroke-opacity:1; 
stroke-linecap:round; stroke-linejoin:round;">
</g>
<g style="fill:#000000; fill-opacity:0.0; 
stroke:#000000; stroke-width:150000.000000; stroke-opacity:1; 
stroke-linecap:round; stroke-linejoin:round;">
<path d="M10000000 60000000
L12000000 60000000
" />
</g>
<g style="fill:#000000; fill-opacity:0.0; 
stroke:#000000; stroke-width:21200.000000; stroke-opacity:1; 
stroke-linecap:round; stroke-linejoin:round;">
</g>
<g style="fill:#000000; fill-opacity:0.0; 
stroke:#000000; stroke-width:150000.000000; stroke-opacity:1; 
stroke-linecap:round; stroke-linejoin:round;">
<path d="M10000000 110000000
L12000000 110000000
" />
</g>
<g style="fill:#000000; fill-opacity:0.0; 
stroke:#000000; stroke-width:21200.000000; stroke-opacity:1; 
stroke-linecap:round; stroke-linejoin:round;">
</g>
<g style="fill:#000000; fill-opacity:0.0; 
stroke:#000000; stroke-width:150000.000000; stroke-opacity:1; 
stroke-linecap:round; stroke-linejoin:round;">
<path d="M10000000 160000000
L12000000 160000000
" />
</g>
<g style="fill:#000000; fill-opacity:0.0; 
stroke:#000000; stroke-width:21200.000000; stroke-opacity:1; 
stroke-linecap:round; stroke-linejoin:round;">
</g>
<g style="fill:#000000; fill-opacity:0.0; 
stroke:#000000; stroke-width:150000.000000; stroke-opacity:1; 
stroke-linecap:round; stroke-linejoin:round;">
<path d="M10000000 210000000
L12000000 210000000
" />
</g>
<g style="fill:#000000; fill-opacity:0.0; 
stroke:#000000; stroke-width:21200.000000; stroke-opacity:1; 
stroke-linecap:round; stroke-linejoin:round;">
</g>
<g style="fill:#000000; fill-opacity:0.0; 
stroke:#000000; stroke-width:150000.000000; stroke-opacity:1; 
stroke-linecap:round; stroke-linejoin:round;">
<path d="M10000000 260000000
L12000000 260000000
" />
</g>
<g style="fill:#000000; fill-opacity:0.0; 
stroke:#000000; stroke-width:21200.000000; stroke-opacity:1; 
stroke-linecap:round; stroke-linejoin:round;">
</g>
<g style="fill:#000000; fill-opacity:0.0; 
stroke:#000000; stroke-width:150000.000000; stroke-opacity:1; 
stroke-linecap:round; stroke-linejoin:round;">
<text x="11000000.000000" y="35650000.000000"
textLength="1264286.000000" font-size="1733333.000000" lengthAdjust="spacingAndGlyphs"
text-anchor="middle" opacity="0">A</text>
<g class="stroked-text"><desc>A</desc>
<path d="M10690476 35216666
L11309523 35216666
" />
<path d="M10566666 35588095
L11000000 34288095
L11433333 35588095
" />
</g></g>
<g style="fill:#000000; fill-opacity:0.0; 
stroke:#000000; stroke-width:21200.000000; stroke-opacity:1; 
stroke-linecap:round; stroke-linejoin:round;">
</g>
<g style="fill:#000000; fill-opacity:0.0; 
stroke:#000000; stroke-width:150000.000000; stroke-opacity:1; 
stroke-linecap:round; stroke-linejoin:round;">
<text x="11000000.000000" y="85650000.000000"
textLength="1450000.000000" font-size="1733333.000000" lengthAdjust="spacingAndGlyphs"
text-anchor="middle" opacity="0">B</text>
<g class="stroked-text"><desc>B</desc>
<path d="M11092857 84907142
L11278571 84969047
L11340476 85030952
L11402380 85154761
L11402380 85340476
L11340476 85464285
L11278571 85526190
L11154761 85588095
L10659523 85588095
L10659523 84288095
L11092857 84288095
L11216666 84350000
L11278571 84411904
L11340476 84535714
L11340476 84659523
L11278571 84783333
L11216666 84845238
L11092857 84907142
L10659523 84907142
" />
</g></g>
<g style="fill:#000000; fill-opacity:0.0; 
stroke:#000000; stroke-width:21200.000000; stroke-opacity:1; 
stroke-linecap:round; stroke-linejoin:round;">
</g>
<g style="fill:#000000; fill-opacity:0.0; 
stroke:#000000; stroke-width:150000.000000; stroke-opacity:1; 
stroke-linecap:round; stroke-linejoin:round;">
<text x="11000000.000000" y="135650000.000000"
textLength="1450000.000000" font-size="1733333.000000" lengthAdjust="spacingAndGlyphs"
text-anchor="middle" opacity="0">C</text>
<g class="stroked-text"><desc>C</desc>
<path d="M11402380 135464285
L11340476 135526190
L11154761 135588095
L11030952 135588095
L10845238 135526190
L10721428 135402380
L10659523 135278571
L10597619 135030952
L10597619 134845238
L10659523 134597619
L10721428 134473809
L10845238 134350000
L11030952 134288095
L11154761 134288095
L11340476 134350000
L11402380 134411904
" />
</g></g>
<g style="fill:#000000; fill-opacity:0.0; 
stroke:#000000; stroke-width:21200.000000; stroke-opacity:1; 
stroke-linecap:round; stroke-linejoin:round;">
</g>
<g style="fill:#000000; fill-opacity:0.0; 
stroke:#000000; stroke-width:150000.000000; stroke-opacity:1; 
stroke-linecap:round; stroke-linejoin:round;">
<text x="11000000.000000" y="185650000.000000"
textLength="1450000.000000" font-size="1733333.000000" lengthAdjust="spacingAndGlyphs"
text-anchor="middle" opacity="0">D</text>
<g class="stroked-text"><desc>D</desc>
<path d="M10659523 185588095
L10659523 184288095
L10969047 184288095
L11154761 184350000
L11278571 184473809
L11340476 184597619
L11402380 184845238
L11402380 185030952
L11340476 185278571
L11278571 185402380
L11154761 185526190
L10969047 185588095
L10659523 185588095
" />
</g></g>
<g style="fill:#000000; fill-opacity:0.0; 
stroke:#000000; stroke-width:21200.000000; stroke-opacity:1; 
stroke-linecap:round; stroke-linejoin:round;">
</g>
<g style="fill:#000000; fill-opacity:0.0; 
stroke:#000000; stroke-width:150000.000000; stroke-opacity:1; 
stroke-linecap:round; stroke-linejoin:round;">
<text x="11000000.000000" y="235650000.000000"
textLength="1326190.000000" font-size="1733333.000000" lengthAdjust="spacingAndGlyphs"
text-anchor="middle" opacity="0">E</text>
<g class="stroked-text"><desc>E</desc>
<path d="M10721428 234907142
L11154761 234907142
" />
<path d="M11340476 235588095
L10721428 235588095
L10721428 234288095
L11340476 234288095
" />
</g></g>
<g style="fill:#000000; fill-opacity:0.0; 
stroke:#000000; stroke-width:21200.000000; stroke-opacity:1; 
stroke-linecap:round; stroke-linejoin:round;">
</g>
<g style="fill:#000000; fill-opacity:0.0; 
stroke:#000000; stroke-width:150000.000000; stroke-opacity:1; 
stroke-linecap:round; stroke-linejoin:round;">
<text x="11000000.000000" y="285650000.000000"
textLength="1264286.000000" font-size="1733333.000000" lengthAdjust="spacingAndGlyphs"
text-anchor="middle" opacity="0">F</text>
<g class="stroked-text"><desc>F</desc>
<path d="M11185714 284907142
L10752380 284907142
" />
<path d="M10752380 285588095
L10752380 284288095
L11371428 284288095
" />
</g></g>
<g style="fill:#000000; fill-opacity:0.0; 
stroke:#000000; stroke-width:21200.000000; stroke-opacity:1; 
stroke-linecap:round; stroke-linejoin:round;">
</g>
<g style="fill:#000000; fill-opacity:0.0; 
stroke:#000000; stroke-width:150000.000000; stroke-opacity:1; 
stroke-linecap:round; stroke-linejoin:round;">
<path d="M409989000 60000000
L407989000 60000000
" />
</g>
<g style="fill:#000000; fill-opacity:0.0; 
stroke:#000000; stroke-width:21200.000000; stroke-opacity:1; 
stroke-linecap:round; stroke-linejoin:round;">
</g>
<g style="fill:#000000; fill-opacity:0.0; 
stroke:#000000; stroke-width:150000.000000; stroke-opacity:1; 
stroke-linecap:round; stroke-linejoin:round;">
<path d="M409989000 110000000
L407989000 110000000
" />
</g>
<g style="fill:#000000; fill-opacity:0.0; 
stroke:#000000; stroke-width:21200.000000; stroke-opacity:1; 
stroke-linecap:round; stroke-linejoin:round;">
</g>
<g style="fill:#000000; fill-opacity:0.0; 
stroke:#000000; stroke-width:150000.000000; stroke-opacity:1; 
stroke-linecap:round; stroke-linejoin:round;">
<path d="M409989000 160000000
L407989000 160000000
" />
</g>
<g style="fill:#000000; fill-opacity:0.0; 
stroke:#000000; stroke-width:21200.000000; stroke-opacity:1; 
stroke-linecap:round; stroke-linejoin:round;">
</g>
<g style="fill:#000000; fill-opacity:0.0; 
stroke:#000000; stroke-width:150000.000000; stroke-opacity:1; 
stroke-linecap:round; stroke-linejoin:round;">
<path d="M409989000 210000000
L407989000 210000000
" />
</g>
<g style="fill:#000000; fill-opacity:0.0; 
stroke:#000000; stroke-width:21200.000000; stroke-opacity:1; 
stroke-linecap:round; stroke-linejoin:round;">
</g>
<g style="fill:#000000; fill-opacity:0.0; 
stroke:#000000; stroke-width:150000.000000; stroke-opacity:1; 
stroke-linecap:round; stroke-linejoin:round;">
<path d="M409989000 260000000
L407989000 260000000
" />
</g>
<g style="fill:#000000; fill-opacity:0.0; 
stroke:#000000; stroke-width:21200.000000; stroke-opacity:1; 
stroke-linecap:round; stroke-linejoin:round;">
</g>
<g style="fill:#000000; fill-opacity:0.0; 
stroke:#000000; stroke-width:150000.000000; stroke-opacity:1; 
stroke-linecap:round; stroke-linejoin:round;">
<text x="408989000.000000" y="35650000.000000"
textLength="1264286.000000" font-size="1733333.000000" lengthAdjust="spacingAndGlyphs"
text-anchor="middle" opacity="0">A</text>
<g class="stroked-text"><desc>A</desc>
<path d="M408679476 35216666
L409298523 35216666
" />
<path d="M408555666 35588095
L408989000 34288095
L409422333 35588095
" />
</g></g>
<g style="fill:#000000; fill-opacity:0.0; 
stroke:#000000; stroke-width:21200.000000; stroke-opacity:1; 
stroke-linecap:round; stroke-linejoin:round;">
</g>
<g style="fill:#000000; fill-opacity:0.0; 
stroke:#000000; stroke-width:150000.000000; stroke-opacity:1; 
stroke-linecap:round; stroke-linejoin:round;">
<text x="408989000.000000" y="85650000.000000"
textLength="1450000.000000" font-size="1733333.000000" lengthAdjust="spacingAndGlyphs"
text-anchor="middle" opacity="0">B</text>
<g class="stroked-text"><desc>B</desc>
<path d="M409081857 84907142
L409267571 84969047
L409329476 85030952
L409391380 85154761
L409391380 85340476
L409329476 85464285
L409267571 85526190
L409143761 85588095
L408648523 85588095
L408648523 84288095
L409081857 84288095
L409205666 84350000
L409267571 84411904
L409329476 84535714
L409329476 84659523
L409267571 84783333
L409205666 84845238
L409081857 84907142
L408648523 84907142
" />
</g></g>
<g style="fill:#000000; fill-opacity:0.0; 
stroke:#000000; stroke-width:21200.000000; stroke-opacity:1; 
stroke-linecap:round; stroke-linejoin:round;">
</g>
<g style="fill:#000000; fill-opacity:0.0; 
stroke:#000000; stroke-width:150000.000000; stroke-opacity:1; 
stroke-linecap:round; stroke-linejoin:round;">
<text x="408989000.000000" y="135650000.000000"
textLength="1450000.000000" font-size="1733333.000000" lengthAdjust="spacingAndGlyphs"
text-anchor="middle" opacity="0">C</text>
<g class="stroked-text"><desc>C</desc>
<path d="M409391380 135464285
L409329476 135526190
L409143761 135588095
L409019952 135588095
L408834238 135526190
L408710428 135402380
L408648523 135278571
L408586619 135030952
L408586619 134845238
L408648523 134597619
L408710428 134473809
L408834238 134350000
L409019952 134288095
L409143761 134288095
L409329476 134350000
L409391380 134411904
" />
</g></g>
<g style="fill:#000000; fill-opacity:0.0; 
stroke:#000000; stroke-width:21200.000000; stroke-opacity:1; 
stroke-linecap:round; stroke-linejoin:round;">
</g>
<g style="fill:#000000; fill-opacity:0.0; 
stroke:#000000; stroke-width:150000.000000; stroke-opacity:1; 
stroke-linecap:round; stroke-linejoin:round;">
<text x="408989000.000000" y="185650000.000000"
textLength="1450000.000000" font-size="1733333.000000" lengthAdjust="spacingAndGlyphs"
text-anchor="middle" opacity="0">D</text>
<g class="stroked-text"><desc>D</desc>
<path d="M408648523 185588095
L408648523 184288095
L408958047 184288095
L409143761 184350000
L409267571 184473809
L409329476 184597619
L409391380 184845238
L409391380 185030952
L409329476 185278571
L409267571 185402380
L409143761 185526190
L408958047 185588095
L408648523 185588095
" />
</g></g>
<g style="fill:#000000; fill-opacity:0.0; 
stroke:#000000; stroke-width:21200.000000; stroke-opacity:1; 
stroke-linecap:round; stroke-linejoin:round;">
</g>
<g style="fill:#000000; fill-opacity:0.0; 
stroke:#000000; stroke-width:150000.000000; stroke-opacity:1; 
stroke-linecap:round; stroke-linejoin:round;">
<text x="408989000.000000" y="235650000.000000"
textLength="1326190.000000" font-size="1733333.000000" lengthAdjust="spacingAndGlyphs"
text-anchor="middle" opacity="0">E</text>
<g class="stroked-text"><desc>E</desc>
<path d="M408710428 234907142
L409143761 234907142
" />
<path d="M409329476 235588095
L408710428 235588095
L408710428 234288095
L409329476 234288095
" />
</g></g>
<g style="fill:#000000; fill-opacity:0.0; 
stroke:#000000; stroke-width:21200.000000; stroke-opacity:1; 
stroke-linecap:round; stroke-linejoin:round;">
</g>
<g style="fill:#000000; fill-opacity:0.0; 
stroke:#000000; stroke-width:150000.000000; stroke-opacity:1; 
stroke-linecap:round; stroke-linejoin:round;">
<text x="408989000.000000" y="285650000.000000"
textLength="1264286.000000" font-size="1733333.000000" lengthAdjust="spacingAndGlyphs"
text-anchor="middle" opacity="0">F</text>
<g class="stroked-text"><desc>F</desc>
<path d="M409174714 284907142
L408741380 284907142
" />
<path d="M408741380 285588095
L408741380 284288095
L409360428 284288095
" />
</g></g>
<g style="fill:#000000; fill-opacity:0.0; 
stroke:#000000; stroke-width:21200.000000; stroke-opacity:1; 
stroke-linecap:round; stroke-linejoin:round;">
</g>
<g style="fill:#000000; fill-opacity:0.0; 
stroke:#000000; stroke-width:150000.000000; stroke-opacity:1; 
stroke-linecap:round; stroke-linejoin:round;">
<text x="322989000.000000" y="280852200.000000"
textLength="7007143.000000" font-size="2000000.000000" lengthAdjust="spacingAndGlyphs"
text-anchor="start" opacity="0">Date: </text>
<g class="stroked-text"><desc>Date: </desc>
<path d="M323421142 280780771
L323421142 279280771
L323778285 279280771
L323992571 279352200
L324135428 279495057
L324206857 279637914
L324278285 279923628
L324278285 280137914
L324206857 280423628
L324135428 280566485
L323992571 280709342
L323778285 280780771
L323421142 280780771
" />
<path d="M325564000 280780771
L325564000 279995057
L325492571 279852200
L325349714 279780771
L325064000 279780771
L324921142 279852200
" />
<path d="M325564000 280709342
L325421142 280780771
L325064000 280780771
L324921142 280709342
L324849714 280566485
L324849714 280423628
L324921142 280280771
L325064000 280209342
L325421142 280209342
L325564000 280137914
" />
<path d="M326064000 279780771
L326635428 279780771
" />
<path d="M326278285 279280771
L326278285 280566485
L326349714 280709342
L326492571 280780771
L326635428 280780771
" />
<path d="M327706857 280709342
L327564000 280780771
L327278285 280780771
L327135428 280709342
L327064000 280566485
L327064000 279995057
L327135428 279852200
L327278285 279780771
L327564000 279780771
L327706857 279852200
L327778285 279995057
L327778285 280137914
L327064000 280280771
" />
<path d="M328421142 280637914
L328492571 280709342
L328421142 280780771
L328349714 280709342
L328421142 280637914
L328421142 280780771
" />
<path d="M328421142 279852200
L328492571 279923628
L328421142 279995057
L328349714 279923628
L328421142 279852200
L328421142 279995057
" />
</g></g>
<g style="fill:#000000; fill-opacity:0.0; 
stroke:#000000; stroke-width:21200.000000; stroke-opacity:1; 
stroke-linecap:round; stroke-linejoin:round;">
</g>
<g style="fill:#000000; fill-opacity:0.0; 
stroke:#000000; stroke-width:150000.000000; stroke-opacity:1; 
stroke-linecap:round; stroke-linejoin:round;">
<path d="M299989000 281502200
L407989000 281502200
" />
</g>
<g style="fill:#000000; fill-opacity:0.0; 
stroke:#000000; stroke-width:21200.000000; stroke-opacity:1; 
stroke-linecap:round; stroke-linejoin:round;">
</g>
<g style="fill:#000000; fill-opacity:0.0; 
stroke:#000000; stroke-width:150000.000000; stroke-opacity:1; 
stroke-linecap:round; stroke-linejoin:round;">
<text x="300989000.000000" y="283652200.000000"
textLength="67721429.000000" font-size="2000000.000000" lengthAdjust="spacingAndGlyphs"
text-anchor="start" opacity="0">KiCad E.D.A.  kicad 6.0.6-3a73a75311~116~ubuntu20.04.1</text>
<g class="stroked-text"><desc>KiCad E.D.A.  kicad 6.0.6-3a73a75311~116~ubuntu20.04.1</desc>
<path d="M301421142 283580771
L301421142 282080771
" />
<path d="M302278285 283580771
L301635428 282723628
" />
<path d="M302278285 282080771
L301421142 282937914
" />
<path d="M302921142 283580771
L302921142 282580771
" />
<path d="M302921142 282080771
L302849714 282152200
L302921142 282223628
L302992571 282152200
L302921142 282080771
L302921142 282223628
" />
<path d="M304492571 283437914
L304421142 283509342
L304206857 283580771
L304064000 283580771
L303849714 283509342
L303706857 283366485
L303635428 283223628
L303564000 282937914
L303564000 282723628
L303635428 282437914
L303706857 282295057
L303849714 282152200
L304064000 282080771
L304206857 282080771
L304421142 282152200
L304492571 282223628
" />
<path d="M305778285 283580771
L305778285 282795057
L305706857 282652200
L305564000 282580771
L305278285 282580771
L305135428 282652200
" />
<path d="M305778285 283509342
L305635428 283580771
L305278285 283580771
L305135428 283509342
L305064000 283366485
L305064000 283223628
L305135428 283080771
L305278285 283009342
L305635428 283009342
L305778285 282937914
" />
<path d="M307135428 283580771
L307135428 282080771
" />
<path d="M307135428 283509342
L306992571 283580771
L306706857 283580771
L306564000 283509342
L306492571 283437914
L306421142 283295057
L306421142 282866485
L306492571 282723628
L306564000 282652200
L306706857 282580771
L306992571 282580771
L307135428 282652200
" />
<path d="M308992571 282795057
L309492571 282795057
" />
<path d="M309706857 283580771
L308992571 283580771
L308992571 282080771
L309706857 282080771
" />
<path d="M310349714 283437914
L310421142 283509342
L310349714 283580771
L310278285 283509342
L310349714 283437914
L310349714 283580771
" />
<path d="M311064000 283580771
L311064000 282080771
L311421142 282080771
L311635428 282152200
L311778285 282295057
L311849714 282437914
L311921142 282723628
L311921142 282937914
L311849714 283223628
L311778285 283366485
L311635428 283509342
L311421142 283580771
L311064000 283580771
" />
<path d="M312564000 283437914
L312635428 283509342
L312564000 283580771
L312492571 283509342
L312564000 283437914
L312564000 283580771
" />
<path d="M313206857 283152200
L313921142 283152200
" />
<path d="M313064000 283580771
L313564000 282080771
L314064000 283580771
" />
<path d="M314564000 283437914
L314635428 283509342
L314564000 283580771
L314492571 283509342
L314564000 283437914
L314564000 283580771
" />
<path d="M317564000 283580771
L317564000 282080771
" />
<path d="M317706857 283009342
L318135428 283580771
" />
<path d="M318135428 282580771
L317564000 283152200
" />
<path d="M318778285 283580771
L318778285 282580771
" />
<path d="M318778285 282080771
L318706857 282152200
L318778285 282223628
L318849714 282152200
L318778285 282080771
L318778285 282223628
" />
<path d="M320135428 283509342
L319992571 283580771
L319706857 283580771
L319564000 283509342
L319492571 283437914
L319421142 283295057
L319421142 282866485
L319492571 282723628
L319564000 282652200
L319706857 282580771
L319992571 282580771
L320135428 282652200
" />
<path d="M321421142 283580771
L321421142 282795057
L321349714 282652200
L321206857 282580771
L320921142 282580771
L320778285 282652200
" />
<path d="M321421142 283509342
L321278285 283580771
L320921142 283580771
L320778285 283509342
L320706857 283366485
L320706857 283223628
L320778285 283080771
L320921142 283009342
L321278285 283009342
L321421142 282937914
" />
<path d="M322778285 283580771
L322778285 282080771
" />
<path d="M322778285 283509342
L322635428 283580771
L322349714 283580771
L322206857 283509342
L322135428 283437914
L322064000 283295057
L322064000 282866485
L322135428 282723628
L322206857 282652200
L322349714 282580771
L322635428 282580771
L322778285 282652200
" />
<path d="M325278285 282080771
L324992571 282080771
L324849714 282152200
L324778285 282223628
L324635428 282437914
L324564000 282723628
L324564000 283295057
L324635428 283437914
L324706857 283509342
L324849714 283580771
L325135428 283580771
L325278285 283509342
L325349714 283437914
L325421142 283295057
L325421142 282937914
L325349714 282795057
L325278285 282723628
L325135428 282652200
L324849714 282652200
L324706857 282723628
L324635428 282795057
L324564000 282937914
" />
<path d="M326064000 283437914
L326135428 283509342
L326064000 283580771
L325992571 283509342
L326064000 283437914
L326064000 283580771
" />
<path d="M327064000 282080771
L327206857 282080771
L327349714 282152200
L327421142 282223628
L327492571 282366485
L327564000 282652200
L327564000 283009342
L327492571 283295057
L327421142 283437914
L327349714 283509342
L327206857 283580771
L327064000 283580771
L326921142 283509342
L326849714 283437914
L326778285 283295057
L326706857 283009342
L326706857 282652200
L326778285 282366485
L326849714 282223628
L326921142 282152200
L327064000 282080771
" />
<path d="M328206857 283437914
L328278285 283509342
L328206857 283580771
L328135428 283509342
L328206857 283437914
L328206857 283580771
" />
<path d="M329564000 282080771
L329278285 282080771
L329135428 282152200
L329064000 282223628
L328921142 282437914
L328849714 282723628
L328849714 283295057
L328921142 283437914
L328992571 283509342
L329135428 283580771
L329421142 283580771
L329564000 283509342
L329635428 283437914
L329706857 283295057
L329706857 282937914
L329635428 282795057
L329564000 282723628
L329421142 282652200
L329135428 282652200
L328992571 282723628
L328921142 282795057
L328849714 282937914
" />
<path d="M330349714 283009342
L331492571 283009342
" />
<path d="M332064000 282080771
L332992571 282080771
L332492571 282652200
L332706857 282652200
L332849714 282723628
L332921142 282795057
L332992571 282937914
L332992571 283295057
L332921142 283437914
L332849714 283509342
L332706857 283580771
L332278285 283580771
L332135428 283509342
L332064000 283437914
" />
<path d="M334278285 283580771
L334278285 282795057
L334206857 282652200
L334064000 282580771
L333778285 282580771
L333635428 282652200
" />
<path d="M334278285 283509342
L334135428 283580771
L333778285 283580771
L333635428 283509342
L333564000 283366485
L333564000 283223628
L333635428 283080771
L333778285 283009342
L334135428 283009342
L334278285 282937914
" />
<path d="M334849714 282080771
L335849714 282080771
L335206857 283580771
" />
<path d="M336278285 282080771
L337206857 282080771
L336706857 282652200
L336921142 282652200
L337064000 282723628
L337135428 282795057
L337206857 282937914
L337206857 283295057
L337135428 283437914
L337064000 283509342
L336921142 283580771
L336492571 283580771
L336349714 283509342
L336278285 283437914
" />
<path d="M338492571 283580771
L338492571 282795057
L338421142 282652200
L338278285 282580771
L337992571 282580771
L337849714 282652200
" />
<path d="M338492571 283509342
L338349714 283580771
L337992571 283580771
L337849714 283509342
L337778285 283366485
L337778285 283223628
L337849714 283080771
L337992571 283009342
L338349714 283009342
L338492571 282937914
" />
<path d="M339064000 282080771
L340064000 282080771
L339421142 283580771
" />
<path d="M341349714 282080771
L340635428 282080771
L340564000 282795057
L340635428 282723628
L340778285 282652200
L341135428 282652200
L341278285 282723628
L341349714 282795057
L341421142 282937914
L341421142 283295057
L341349714 283437914
L341278285 283509342
L341135428 283580771
L340778285 283580771
L340635428 283509342
L340564000 283437914
" />
<path d="M341921142 282080771
L342849714 282080771
L342349714 282652200
L342564000 282652200
L342706857 282723628
L342778285 282795057
L342849714 282937914
L342849714 283295057
L342778285 283437914
L342706857 283509342
L342564000 283580771
L342135428 283580771
L341992571 283509342
L341921142 283437914
" />
<path d="M344278285 283580771
L343421142 283580771
" />
<path d="M343849714 283580771
L343849714 282080771
L343706857 282295057
L343564000 282437914
L343421142 282509342
" />
<path d="M345706857 283580771
L344849714 283580771
" />
<path d="M345278285 283580771
L345278285 282080771
L345135428 282295057
L344992571 282437914
L344849714 282509342
" />
<path d="M346135428 283009342
L346206857 282937914
L346349714 282866485
L346635428 283009342
L346778285 282937914
L346849714 282866485
" />
<path d="M348206857 283580771
L347349714 283580771
" />
<path d="M347778285 283580771
L347778285 282080771
L347635428 282295057
L347492571 282437914
L347349714 282509342
" />
<path d="M349635428 283580771
L348778285 283580771
" />
<path d="M349206857 283580771
L349206857 282080771
L349064000 282295057
L348921142 282437914
L348778285 282509342
" />
<path d="M350921142 282080771
L350635428 282080771
L350492571 282152200
L350421142 282223628
L350278285 282437914
L350206857 282723628
L350206857 283295057
L350278285 283437914
L350349714 283509342
L350492571 283580771
L350778285 283580771
L350921142 283509342
L350992571 283437914
L351064000 283295057
L351064000 282937914
L350992571 282795057
L350921142 282723628
L350778285 282652200
L350492571 282652200
L350349714 282723628
L350278285 282795057
L350206857 282937914
" />
<path d="M351492571 283009342
L351564000 282937914
L351706857 282866485
L351992571 283009342
L352135428 282937914
L352206857 282866485
" />
<path d="M353421142 282580771
L353421142 283580771
" />
<path d="M352778285 282580771
L352778285 283366485
L352849714 283509342
L352992571 283580771
L353206857 283580771
L353349714 283509342
L353421142 283437914
" />
<path d="M354135428 283580771
L354135428 282080771
" />
<path d="M354135428 282652200
L354278285 282580771
L354564000 282580771
L354706857 282652200
L354778285 282723628
L354849714 282866485
L354849714 283295057
L354778285 283437914
L354706857 283509342
L354564000 283580771
L354278285 283580771
L354135428 283509342
" />
<path d="M356135428 282580771
L356135428 283580771
" />
<path d="M355492571 282580771
L355492571 283366485
L355564000 283509342
L355706857 283580771
L355921142 283580771
L356064000 283509342
L356135428 283437914
" />
<path d="M356849714 282580771
L356849714 283580771
" />
<path d="M356849714 282723628
L356921142 282652200
L357064000 282580771
L357278285 282580771
L357421142 282652200
L357492571 282795057
L357492571 283580771
" />
<path d="M357992571 282580771
L358564000 282580771
" />
<path d="M358206857 282080771
L358206857 283366485
L358278285 283509342
L358421142 283580771
L358564000 283580771
" />
<path d="M359706857 282580771
L359706857 283580771
" />
<path d="M359064000 282580771
L359064000 283366485
L359135428 283509342
L359278285 283580771
L359492571 283580771
L359635428 283509342
L359706857 283437914
" />
<path d="M360349714 282223628
L360421142 282152200
L360564000 282080771
L360921142 282080771
L361064000 282152200
L361135428 282223628
L361206857 282366485
L361206857 282509342
L361135428 282723628
L360278285 283580771
L361206857 283580771
" />
<path d="M362135428 282080771
L362278285 282080771
L362421142 282152200
L362492571 282223628
L362564000 282366485
L362635428 282652200
L362635428 283009342
L362564000 283295057
L362492571 283437914
L362421142 283509342
L362278285 283580771
L362135428 283580771
L361992571 283509342
L361921142 283437914
L361849714 283295057
L361778285 283009342
L361778285 282652200
L361849714 282366485
L361921142 282223628
L361992571 282152200
L362135428 282080771
" />
<path d="M363278285 283437914
L363349714 283509342
L363278285 283580771
L363206857 283509342
L363278285 283437914
L363278285 283580771
" />
<path d="M364278285 282080771
L364421142 282080771
L364564000 282152200
L364635428 282223628
L364706857 282366485
L364778285 282652200
L364778285 283009342
L364706857 283295057
L364635428 283437914
L364564000 283509342
L364421142 283580771
L364278285 283580771
L364135428 283509342
L364064000 283437914
L363992571 283295057
L363921142 283009342
L363921142 282652200
L363992571 282366485
L364064000 282223628
L364135428 282152200
L364278285 282080771
" />
<path d="M366064000 282580771
L366064000 283580771
" />
<path d="M365706857 282009342
L365349714 283080771
L366278285 283080771
" />
<path d="M366849714 283437914
L366921142 283509342
L366849714 283580771
L366778285 283509342
L366849714 283437914
L366849714 283580771
" />
<path d="M368349714 283580771
L367492571 283580771
" />
<path d="M367921142 283580771
L367921142 282080771
L367778285 282295057
L367635428 282437914
L367492571 282509342
" />
</g></g>
<g style="fill:#000000; fill-opacity:0.0; 
stroke:#000000; stroke-width:21200.000000; stroke-opacity:1; 
stroke-linecap:round; stroke-linejoin:round;">
</g>
<g style="fill:#000000; fill-opacity:0.0; 
stroke:#000000; stroke-width:150000.000000; stroke-opacity:1; 
stroke-linecap:round; stroke-linejoin:round;">
<path d="M299989000 278502200
L407989000 278502200
" />
</g>
<g style="fill:#000000; fill-opacity:0.0; 
stroke:#000000; stroke-width:21200.000000; stroke-opacity:1; 
stroke-linecap:round; stroke-linejoin:round;">
</g>
<g style="fill:#000000; fill-opacity:0.0; 
stroke:#000000; stroke-width:300000.000000; stroke-opacity:1; 
stroke-linecap:round; stroke-linejoin:round;">
<text x="385989000.000000" y="280852200.000000"
textLength="5935714.000000" font-size="2000000.000000" lengthAdjust="spacingAndGlyphs"
text-anchor="start" opacity="0">Rev: </text>
<g class="stroked-text"><desc>Rev: </desc>
<path d="M387398285 280780771
L386898285 280066485
" />
<path d="M386541142 280780771
L386541142 279280771
L387112571 279280771
L387255428 279352200
L387326857 279423628
L387398285 279566485
L387398285 279780771
L387326857 279923628
L387255428 279995057
L387112571 280066485
L386541142 280066485
" />
<path d="M388612571 280709342
L388469714 280780771
L388184000 280780771
L388041142 280709342
L387969714 280566485
L387969714 279995057
L388041142 279852200
L388184000 279780771
L388469714 279780771
L388612571 279852200
L388684000 279995057
L388684000 280137914
L387969714 280280771
" />
<path d="M389184000 279780771
L389541142 280780771
L389898285 279780771
" />
<path d="M390469714 280637914
L390541142 280709342
L390469714 280780771
L390398285 280709342
L390469714 280637914
L390469714 280780771
" />
<path d="M390469714 279852200
L390541142 279923628
L390469714 279995057
L390398285 279923628
L390469714 279852200
L390469714 279995057
" />
</g></g>
<g style="fill:#000000; fill-opacity:0.0; 
stroke:#000000; stroke-width:21200.000000; stroke-opacity:1; 
stroke-linecap:round; stroke-linejoin:round;">
</g>
<g style="fill:#000000; fill-opacity:0.0; 
stroke:#000000; stroke-width:150000.000000; stroke-opacity:1; 
stroke-linecap:round; stroke-linejoin:round;">
<text x="300989000.000000" y="280852200.000000"
textLength="9604286.000000" font-size="2000000.000000" lengthAdjust="spacingAndGlyphs"
text-anchor="start" opacity="0">Size: A3</text>
<g class="stroked-text"><desc>Size: A3</desc>
<path d="M301349714 280709342
L301564000 280780771
L301921142 280780771
L302064000 280709342
L302135428 280637914
L302206857 280495057
L302206857 280352200
L302135428 280209342
L302064000 280137914
L301921142 280066485
L301635428 279995057
L301492571 279923628
L301421142 279852200
L301349714 279709342
L301349714 279566485
L301421142 279423628
L301492571 279352200
L301635428 279280771
L301992571 279280771
L302206857 279352200
" />
<path d="M302849714 280780771
L302849714 279780771
" />
<path d="M302849714 279280771
L302778285 279352200
L302849714 279423628
L302921142 279352200
L302849714 279280771
L302849714 279423628
" />
<path d="M303421142 279780771
L304206857 279780771
L303421142 280780771
L304206857 280780771
" />
<path d="M305349714 280709342
L305206857 280780771
L304921142 280780771
L304778285 280709342
L304706857 280566485
L304706857 279995057
L304778285 279852200
L304921142 279780771
L305206857 279780771
L305349714 279852200
L305421142 279995057
L305421142 280137914
L304706857 280280771
" />
<path d="M306064000 280637914
L306135428 280709342
L306064000 280780771
L305992571 280709342
L306064000 280637914
L306064000 280780771
" />
<path d="M306064000 279852200
L306135428 279923628
L306064000 279995057
L305992571 279923628
L306064000 279852200
L306064000 279995057
" />
<path d="M307849714 280352200
L308564000 280352200
" />
<path d="M307706857 280780771
L308206857 279280771
L308706857 280780771
" />
<path d="M309064000 279280771
L309992571 279280771
L309492571 279852200
L309706857 279852200
L309849714 279923628
L309921142 279995057
L309992571 280137914
L309992571 280495057
L309921142 280637914
L309849714 280709342
L309706857 280780771
L309278285 280780771
L309135428 280709342
L309064000 280637914
" />
</g></g>
<g style="fill:#000000; fill-opacity:0.0; 
stroke:#000000; stroke-width:21200.000000; stroke-opacity:1; 
stroke-linecap:round; stroke-linejoin:round;">
</g>
<g style="fill:#000000; fill-opacity:0.0; 
stroke:#000000; stroke-width:150000.000000; stroke-opacity:1; 
stroke-linecap:round; stroke-linejoin:round;">
<text x="385989000.000000" y="283652200.000000"
textLength="8507143.000000" font-size="2000000.000000" lengthAdjust="spacingAndGlyphs"
text-anchor="start" opacity="0">Id: 1/1</text>
<g class="stroked-text"><desc>Id: 1/1</desc>
<path d="M386421142 283580771
L386421142 282080771
" />
<path d="M387778285 283580771
L387778285 282080771
" />
<path d="M387778285 283509342
L387635428 283580771
L387349714 283580771
L387206857 283509342
L387135428 283437914
L387064000 283295057
L387064000 282866485
L387135428 282723628
L387206857 282652200
L387349714 282580771
L387635428 282580771
L387778285 282652200
" />
<path d="M388492571 283437914
L388564000 283509342
L388492571 283580771
L388421142 283509342
L388492571 283437914
L388492571 283580771
" />
<path d="M388492571 282652200
L388564000 282723628
L388492571 282795057
L388421142 282723628
L388492571 282652200
L388492571 282795057
" />
<path d="M391135428 283580771
L390278285 283580771
" />
<path d="M390706857 283580771
L390706857 282080771
L390564000 282295057
L390421142 282437914
L390278285 282509342
" />
<path d="M392849714 282009342
L391564000 283937914
" />
<path d="M394135428 283580771
L393278285 283580771
" />
<path d="M393706857 283580771
L393706857 282080771
L393564000 282295057
L393421142 282437914
L393278285 282509342
" />
</g></g>
<g style="fill:#000000; fill-opacity:0.0; 
stroke:#000000; stroke-width:21200.000000; stroke-opacity:1; 
stroke-linecap:round; stroke-linejoin:round;">
</g>
<g style="fill:#000000; fill-opacity:0.0; 
stroke:#000000; stroke-width:150000.000000; stroke-opacity:1; 
stroke-linecap:round; stroke-linejoin:round;">
<path d="M299989000 274502200
L407989000 274502200
" />
</g>
<g style="fill:#000000; fill-opacity:0.0; 
stroke:#000000; stroke-width:21200.000000; stroke-opacity:1; 
stroke-linecap:round; stroke-linejoin:round;">
</g>
<g style="fill:#000000; fill-opacity:0.0; 
stroke:#000000; stroke-width:400000.000000; stroke-opacity:1; 
stroke-linecap:round; stroke-linejoin:round;">
<text x="300989000.000000" y="277302200.000000"
textLength="9409643.000000" font-size="2666666.000000" lengthAdjust="spacingAndGlyphs"
text-anchor="start" opacity="0">Title: </text>
<g class="stroked-text"><desc>Title: </desc>
<path d="M301701380 275206961
L302844238 275206961
" />
<path d="M302022809 277206961
L302272809 275206961
" />
<path d="M303260904 277206961
L303427571 275873628
" />
<path d="M303510904 275206961
L303403761 275302200
L303487095 275397438
L303594238 275302200
L303510904 275206961
L303487095 275397438
" />
<path d="M304094238 275873628
L304856142 275873628
" />
<path d="M304463285 275206961
L304249000 276921247
L304320428 277111723
L304499000 277206961
L304689476 277206961
" />
<path d="M305641857 277206961
L305463285 277111723
L305391857 276921247
L305606142 275206961
" />
<path d="M307177571 277111723
L306975190 277206961
L306594238 277206961
L306415666 277111723
L306344238 276921247
L306439476 276159342
L306558523 275968866
L306760904 275873628
L307141857 275873628
L307320428 275968866
L307391857 276159342
L307368047 276349819
L306391857 276540295
" />
<path d="M308141857 277016485
L308225190 277111723
L308118047 277206961
L308034714 277111723
L308141857 277016485
L308118047 277206961
" />
<path d="M308272809 275968866
L308356142 276064104
L308249000 276159342
L308165666 276064104
L308272809 275968866
L308249000 276159342
" />
</g></g>
<g style="fill:#000000; fill-opacity:0.0; 
stroke:#000000; stroke-width:21200.000000; stroke-opacity:1; 
stroke-linecap:round; stroke-linejoin:round;">
</g>
<g style="fill:#000000; fill-opacity:0.0; 
stroke:#000000; stroke-width:150000.000000; stroke-opacity:1; 
stroke-linecap:round; stroke-linejoin:round;">
<text x="300989000.000000" y="273452200.000000"
textLength="44162857.000000" font-size="2000000.000000" lengthAdjust="spacingAndGlyphs"
text-anchor="start" opacity="0">File: 555kickTHCfrontPannel.kicad_pcb</text>
<g class="stroked-text"><desc>File: 555kickTHCfrontPannel.kicad_pcb</desc>
<path d="M301921142 272595057
L301421142 272595057
" />
<path d="M301421142 273380771
L301421142 271880771
L302135428 271880771
" />
<path d="M302706857 273380771
L302706857 272380771
" />
<path d="M302706857 271880771
L302635428 271952200
L302706857 272023628
L302778285 271952200
L302706857 271880771
L302706857 272023628
" />
<path d="M303635428 273380771
L303492571 273309342
L303421142 273166485
L303421142 271880771
" />
<path d="M304778285 273309342
L304635428 273380771
L304349714 273380771
L304206857 273309342
L304135428 273166485
L304135428 272595057
L304206857 272452200
L304349714 272380771
L304635428 272380771
L304778285 272452200
L304849714 272595057
L304849714 272737914
L304135428 272880771
" />
<path d="M305492571 273237914
L305564000 273309342
L305492571 273380771
L305421142 273309342
L305492571 273237914
L305492571 273380771
" />
<path d="M305492571 272452200
L305564000 272523628
L305492571 272595057
L305421142 272523628
L305492571 272452200
L305492571 272595057
" />
<path d="M308064000 271880771
L307349714 271880771
L307278285 272595057
L307349714 272523628
L307492571 272452200
L307849714 272452200
L307992571 272523628
L308064000 272595057
L308135428 272737914
L308135428 273095057
L308064000 273237914
L307992571 273309342
L307849714 273380771
L307492571 273380771
L307349714 273309342
L307278285 273237914
" />
<path d="M309492571 271880771
L308778285 271880771
L308706857 272595057
L308778285 272523628
L308921142 272452200
L309278285 272452200
L309421142 272523628
L309492571 272595057
L309564000 272737914
L309564000 273095057
L309492571 273237914
L309421142 273309342
L309278285 273380771
L308921142 273380771
L308778285 273309342
L308706857 273237914
" />
<path d="M310921142 271880771
L310206857 271880771
L310135428 272595057
L310206857 272523628
L310349714 272452200
L310706857 272452200
L310849714 272523628
L310921142 272595057
L310992571 272737914
L310992571 273095057
L310921142 273237914
L310849714 273309342
L310706857 273380771
L310349714 273380771
L310206857 273309342
L310135428 273237914
" />
<path d="M311635428 273380771
L311635428 271880771
" />
<path d="M311778285 272809342
L312206857 273380771
" />
<path d="M312206857 272380771
L311635428 272952200
" />
<path d="M312849714 273380771
L312849714 272380771
" />
<path d="M312849714 271880771
L312778285 271952200
L312849714 272023628
L312921142 271952200
L312849714 271880771
L312849714 272023628
" />
<path d="M314206857 273309342
L314064000 273380771
L313778285 273380771
L313635428 273309342
L313564000 273237914
L313492571 273095057
L313492571 272666485
L313564000 272523628
L313635428 272452200
L313778285 272380771
L314064000 272380771
L314206857 272452200
" />
<path d="M314849714 273380771
L314849714 271880771
" />
<path d="M314992571 272809342
L315421142 273380771
" />
<path d="M315421142 272380771
L314849714 272952200
" />
<path d="M315849714 271880771
L316706857 271880771
" />
<path d="M316278285 273380771
L316278285 271880771
" />
<path d="M317206857 273380771
L317206857 271880771
" />
<path d="M317206857 272595057
L318064000 272595057
" />
<path d="M318064000 273380771
L318064000 271880771
" />
<path d="M319635428 273237914
L319564000 273309342
L319349714 273380771
L319206857 273380771
L318992571 273309342
L318849714 273166485
L318778285 273023628
L318706857 272737914
L318706857 272523628
L318778285 272237914
L318849714 272095057
L318992571 271952200
L319206857 271880771
L319349714 271880771
L319564000 271952200
L319635428 272023628
" />
<path d="M320064000 272380771
L320635428 272380771
" />
<path d="M320278285 273380771
L320278285 272095057
L320349714 271952200
L320492571 271880771
L320635428 271880771
" />
<path d="M321135428 273380771
L321135428 272380771
" />
<path d="M321135428 272666485
L321206857 272523628
L321278285 272452200
L321421142 272380771
L321564000 272380771
" />
<path d="M322278285 273380771
L322135428 273309342
L322064000 273237914
L321992571 273095057
L321992571 272666485
L322064000 272523628
L322135428 272452200
L322278285 272380771
L322492571 272380771
L322635428 272452200
L322706857 272523628
L322778285 272666485
L322778285 273095057
L322706857 273237914
L322635428 273309342
L322492571 273380771
L322278285 273380771
" />
<path d="M323421142 272380771
L323421142 273380771
" />
<path d="M323421142 272523628
L323492571 272452200
L323635428 272380771
L323849714 272380771
L323992571 272452200
L324064000 272595057
L324064000 273380771
" />
<path d="M324564000 272380771
L325135428 272380771
" />
<path d="M324778285 271880771
L324778285 273166485
L324849714 273309342
L324992571 273380771
L325135428 273380771
" />
<path d="M325635428 273380771
L325635428 271880771
L326206857 271880771
L326349714 271952200
L326421142 272023628
L326492571 272166485
L326492571 272380771
L326421142 272523628
L326349714 272595057
L326206857 272666485
L325635428 272666485
" />
<path d="M327778285 273380771
L327778285 272595057
L327706857 272452200
L327564000 272380771
L327278285 272380771
L327135428 272452200
" />
<path d="M327778285 273309342
L327635428 273380771
L327278285 273380771
L327135428 273309342
L327064000 273166485
L327064000 273023628
L327135428 272880771
L327278285 272809342
L327635428 272809342
L327778285 272737914
" />
<path d="M328492571 272380771
L328492571 273380771
" />
<path d="M328492571 272523628
L328564000 272452200
L328706857 272380771
L328921142 272380771
L329064000 272452200
L329135428 272595057
L329135428 273380771
" />
<path d="M329849714 272380771
L329849714 273380771
" />
<path d="M329849714 272523628
L329921142 272452200
L330064000 272380771
L330278285 272380771
L330421142 272452200
L330492571 272595057
L330492571 273380771
" />
<path d="M331778285 273309342
L331635428 273380771
L331349714 273380771
L331206857 273309342
L331135428 273166485
L331135428 272595057
L331206857 272452200
L331349714 272380771
L331635428 272380771
L331778285 272452200
L331849714 272595057
L331849714 272737914
L331135428 272880771
" />
<path d="M332706857 273380771
L332564000 273309342
L332492571 273166485
L332492571 271880771
" />
<path d="M333278285 273237914
L333349714 273309342
L333278285 273380771
L333206857 273309342
L333278285 273237914
L333278285 273380771
" />
<path d="M333992571 273380771
L333992571 271880771
" />
<path d="M334135428 272809342
L334564000 273380771
" />
<path d="M334564000 272380771
L333992571 272952200
" />
<path d="M335206857 273380771
L335206857 272380771
" />
<path d="M335206857 271880771
L335135428 271952200
L335206857 272023628
L335278285 271952200
L335206857 271880771
L335206857 272023628
" />
<path d="M336564000 273309342
L336421142 273380771
L336135428 273380771
L335992571 273309342
L335921142 273237914
L335849714 273095057
L335849714 272666485
L335921142 272523628
L335992571 272452200
L336135428 272380771
L336421142 272380771
L336564000 272452200
" />
<path d="M337849714 273380771
L337849714 272595057
L337778285 272452200
L337635428 272380771
L337349714 272380771
L337206857 272452200
" />
<path d="M337849714 273309342
L337706857 273380771
L337349714 273380771
L337206857 273309342
L337135428 273166485
L337135428 273023628
L337206857 272880771
L337349714 272809342
L337706857 272809342
L337849714 272737914
" />
<path d="M339206857 273380771
L339206857 271880771
" />
<path d="M339206857 273309342
L339064000 273380771
L338778285 273380771
L338635428 273309342
L338564000 273237914
L338492571 273095057
L338492571 272666485
L338564000 272523628
L338635428 272452200
L338778285 272380771
L339064000 272380771
L339206857 272452200
" />
<path d="M339564000 273523628
L340706857 273523628
" />
<path d="M341064000 272380771
L341064000 273880771
" />
<path d="M341064000 272452200
L341206857 272380771
L341492571 272380771
L341635428 272452200
L341706857 272523628
L341778285 272666485
L341778285 273095057
L341706857 273237914
L341635428 273309342
L341492571 273380771
L341206857 273380771
L341064000 273309342
" />
<path d="M343064000 273309342
L342921142 273380771
L342635428 273380771
L342492571 273309342
L342421142 273237914
L342349714 273095057
L342349714 272666485
L342421142 272523628
L342492571 272452200
L342635428 272380771
L342921142 272380771
L343064000 272452200
" />
<path d="M343706857 273380771
L343706857 271880771
" />
<path d="M343706857 272452200
L343849714 272380771
L344135428 272380771
L344278285 272452200
L344349714 272523628
L344421142 272666485
L344421142 273095057
L344349714 273237914
L344278285 273309342
L344135428 273380771
L343849714 273380771
L343706857 273309342
" />
</g></g>
<g style="fill:#000000; fill-opacity:0.0; 
stroke:#000000; stroke-width:21200.000000; stroke-opacity:1; 
stroke-linecap:round; stroke-linejoin:round;">
</g>
<g style="fill:#000000; fill-opacity:0.0; 
stroke:#000000; stroke-width:150000.000000; stroke-opacity:1; 
stroke-linecap:round; stroke-linejoin:round;">
<path d="M299989000 268502200
L407989000 268502200
" />
</g>
<g style="fill:#000000; fill-opacity:0.0; 
stroke:#000000; stroke-width:21200.000000; stroke-opacity:1; 
stroke-linecap:round; stroke-linejoin:round;">
</g>
<g style="fill:#000000; fill-opacity:0.0; 
stroke:#000000; stroke-width:150000.000000; stroke-opacity:1; 
stroke-linecap:round; stroke-linejoin:round;">
<text x="300989000.000000" y="270752200.000000"
textLength="8221429.000000" font-size="2000000.000000" lengthAdjust="spacingAndGlyphs"
text-anchor="start" opacity="0">Sheet: </text>
<g class="stroked-text"><desc>Sheet: </desc>
<path d="M301349714 270609342
L301564000 270680771
L301921142 270680771
L302064000 270609342
L302135428 270537914
L302206857 270395057
L302206857 270252200
L302135428 270109342
L302064000 270037914
L301921142 269966485
L301635428 269895057
L301492571 269823628
L301421142 269752200
L301349714 269609342
L301349714 269466485
L301421142 269323628
L301492571 269252200
L301635428 269180771
L301992571 269180771
L302206857 269252200
" />
<path d="M302849714 270680771
L302849714 269180771
" />
<path d="M303492571 270680771
L303492571 269895057
L303421142 269752200
L303278285 269680771
L303064000 269680771
L302921142 269752200
L302849714 269823628
" />
<path d="M304778285 270609342
L304635428 270680771
L304349714 270680771
L304206857 270609342
L304135428 270466485
L304135428 269895057
L304206857 269752200
L304349714 269680771
L304635428 269680771
L304778285 269752200
L304849714 269895057
L304849714 270037914
L304135428 270180771
" />
<path d="M306064000 270609342
L305921142 270680771
L305635428 270680771
L305492571 270609342
L305421142 270466485
L305421142 269895057
L305492571 269752200
L305635428 269680771
L305921142 269680771
L306064000 269752200
L306135428 269895057
L306135428 270037914
L305421142 270180771
" />
<path d="M306564000 269680771
L307135428 269680771
" />
<path d="M306778285 269180771
L306778285 270466485
L306849714 270609342
L306992571 270680771
L307135428 270680771
" />
<path d="M307635428 270537914
L307706857 270609342
L307635428 270680771
L307564000 270609342
L307635428 270537914
L307635428 270680771
" />
<path d="M307635428 269752200
L307706857 269823628
L307635428 269895057
L307564000 269823628
L307635428 269752200
L307635428 269895057
" />
</g></g>
<g style="fill:#000000; fill-opacity:0.0; 
stroke:#000000; stroke-width:21200.000000; stroke-opacity:1; 
stroke-linecap:round; stroke-linejoin:round;">
</g>
<g style="fill:#000000; fill-opacity:0.0; 
stroke:#000000; stroke-width:300000.000000; stroke-opacity:1; 
stroke-linecap:round; stroke-linejoin:round;">
<text x="300989000.000000" y="267752200.000000"
textLength="150000.000000" font-size="2000000.000000" lengthAdjust="spacingAndGlyphs"
text-anchor="start" opacity="0"></text>
<g class="stroked-text"><desc></desc>
</g></g>
<g style="fill:#000000; fill-opacity:0.0; 
stroke:#000000; stroke-width:21200.000000; stroke-opacity:1; 
stroke-linecap:round; stroke-linejoin:round;">
</g>
<g style="fill:#000000; fill-opacity:0.0; 
stroke:#000000; stroke-width:150000.000000; stroke-opacity:1; 
stroke-linecap:round; stroke-linejoin:round;">
<text x="300989000.000000" y="264752200.000000"
textLength="300000.000000" font-size="2000000.000000" lengthAdjust="spacingAndGlyphs"
text-anchor="start" opacity="0"></text>
<g class="stroked-text"><desc></desc>
</g></g>
<g style="fill:#000000; fill-opacity:0.0; 
stroke:#000000; stroke-width:21200.000000; stroke-opacity:1; 
stroke-linecap:round; stroke-linejoin:round;">
</g>
<g style="fill:#000000; fill-opacity:0.0; 
stroke:#000000; stroke-width:150000.000000; stroke-opacity:1; 
stroke-linecap:round; stroke-linejoin:round;">
<text x="300989000.000000" y="261752200.000000"
textLength="150000.000000" font-size="2000000.000000" lengthAdjust="spacingAndGlyphs"
text-anchor="start" opacity="0"></text>
<g class="stroked-text"><desc></desc>
</g></g>
<g style="fill:#000000; fill-opacity:0.0; 
stroke:#000000; stroke-width:21200.000000; stroke-opacity:1; 
stroke-linecap:round; stroke-linejoin:round;">
</g>
<g style="fill:#000000; fill-opacity:0.0; 
stroke:#000000; stroke-width:150000.000000; stroke-opacity:1; 
stroke-linecap:round; stroke-linejoin:round;">
<text x="300989000.000000" y="258752200.000000"
textLength="150000.000000" font-size="2000000.000000" lengthAdjust="spacingAndGlyphs"
text-anchor="start" opacity="0"></text>
<g class="stroked-text"><desc></desc>
</g></g>
<g style="fill:#000000; fill-opacity:0.0; 
stroke:#000000; stroke-width:21200.000000; stroke-opacity:1; 
stroke-linecap:round; stroke-linejoin:round;">
</g>
<g style="fill:#000000; fill-opacity:0.0; 
stroke:#000000; stroke-width:150000.000000; stroke-opacity:1; 
stroke-linecap:round; stroke-linejoin:round;">
<text x="300989000.000000" y="255752200.000000"
textLength="150000.000000" font-size="2000000.000000" lengthAdjust="spacingAndGlyphs"
text-anchor="start" opacity="0"></text>
<g class="stroked-text"><desc></desc>
</g></g>
<g style="fill:#000000; fill-opacity:0.0; 
stroke:#000000; stroke-width:21200.000000; stroke-opacity:1; 
stroke-linecap:round; stroke-linejoin:round;">
</g>
<g style="fill:#000000; fill-opacity:0.0; 
stroke:#000000; stroke-width:150000.000000; stroke-opacity:1; 
stroke-linecap:round; stroke-linejoin:round;">
<path d="M319989000 278502200
L319989000 281502200
" />
</g>
<g style="fill:#000000; fill-opacity:0.0; 
stroke:#000000; stroke-width:21200.000000; stroke-opacity:1; 
stroke-linecap:round; stroke-linejoin:round;">
</g>
<g style="fill:#000000; fill-opacity:0.0; 
stroke:#000000; stroke-width:150000.000000; stroke-opacity:1; 
stroke-linecap:round; stroke-linejoin:round;">
<path d="M383989000 278502200
L383989000 285002200
" />
</g>
<g style="fill:#C2C200; fill-opacity:0.0; 
stroke:#C2C200; stroke-width:150000.000000; stroke-opacity:1; 
stroke-linecap:round; stroke-linejoin:round;">
</g>
<g style="fill:#C2C200; fill-opacity:0.0; 
stroke:#C2C200; stroke-width:100000.000000; stroke-opacity:1; 
stroke-linecap:round; stroke-linejoin:round;">
<path d="M181000000 256000000
L231000000 256000000
" />
<path d="M231000000 256000000
L231000000 56000000
" />
<path d="M231000000 56000000
L181000000 56000000
" />
<path d="M181000000 56000000
L181000000 256000000
" />
<g >
</g>
<g >
</g>
<g >
</g>
<g >
</g>
<g >
</g>
<g >
</g>
<g >
</g>
<g >
</g>
<g >
</g>
<g >
</g>
<g >
</g>
<g >
</g>
<g >
</g>
<g >
</g>
<g >
</g>
<g >
</g>
<g >
</g>
</g> 
</svg>
