M48
; DRILL file {KiCad 6.0.6-3a73a75311~116~ubuntu20.04.1} date Sat 16 Jul 2022 23:39:13 BST
; FORMAT={-:-/ absolute / metric / decimal}
; #@! TF.CreationDate,2022-07-16T23:39:13+01:00
; #@! TF.GenerationSoftware,Kicad,Pcbnew,6.0.6-3a73a75311~116~ubuntu20.04.1
; #@! TF.FileFunction,Plated,1,2,PTH
FMAT,2
METRIC
; #@! TA.AperFunction,Plated,PTH,ComponentDrill
T1C0.600
; #@! TA.AperFunction,Plated,PTH,ComponentDrill
T2C0.700
; #@! TA.AperFunction,Plated,PTH,ComponentDrill
T3C0.800
; #@! TA.AperFunction,Plated,PTH,ComponentDrill
T4C0.900
; #@! TA.AperFunction,Plated,PTH,ComponentDrill
T5C1.000
; #@! TA.AperFunction,Plated,PTH,ComponentDrill
T6C1.100
; #@! TA.AperFunction,Plated,PTH,ComponentDrill
T7C1.300
%
G90
G05
T1
X161.0Y-84.0
X161.0Y-115.5
X163.0Y-84.0
X163.0Y-115.5
T2
X121.96Y-162.0
X122.46Y-82.0
X124.5Y-162.0
X125.0Y-46.96
X125.0Y-49.5
X125.0Y-82.0
X127.46Y-134.5
X127.5Y-109.5
X129.5Y-159.5
X130.0Y-134.5
X130.04Y-109.5
X132.04Y-159.5
X136.0Y-153.0
X137.5Y-87.0
X137.5Y-129.46
X137.5Y-132.0
X138.54Y-153.0
X140.0Y-101.96
X140.0Y-104.5
X140.04Y-87.0
X141.96Y-70.0
X144.5Y-70.0
X145.0Y-89.5
X147.5Y-122.0
X147.54Y-89.5
X149.5Y-166.0
X149.96Y-57.0
X150.04Y-122.0
X152.04Y-166.0
X152.5Y-57.0
X152.5Y-74.46
X152.5Y-77.0
X152.5Y-89.46
X152.5Y-92.0
X152.5Y-109.5
X152.5Y-112.04
X154.96Y-49.5
X155.0Y-131.96
X155.0Y-134.5
X156.0Y-139.0
X157.5Y-49.5
X158.54Y-139.0
T3
X122.5Y-119.5
X122.96Y-64.0
X125.0Y-119.5
X125.0Y-139.5
X125.0Y-142.0
X125.5Y-61.46
X128.04Y-64.0
X130.0Y-49.5
X130.0Y-52.04
X130.0Y-54.58
X130.0Y-57.12
X132.0Y-164.5
X132.0Y-167.0
X132.5Y-74.5
X132.5Y-77.0
X135.0Y-137.0
X137.0Y-65.0
X137.0Y-159.5
X137.0Y-162.04
X137.0Y-164.58
X137.0Y-167.12
X137.5Y-137.0
X137.62Y-49.5
X137.62Y-52.04
X137.62Y-54.58
X137.62Y-57.12
X140.0Y-74.5
X140.0Y-77.04
X140.0Y-79.58
X140.0Y-82.12
X140.96Y-112.27
X142.0Y-65.0
X142.5Y-57.0
X142.5Y-119.5
X142.5Y-124.5
X142.5Y-129.5
X142.5Y-132.04
X142.5Y-134.58
X142.5Y-137.12
X143.5Y-109.73
X144.0Y-144.0
X144.62Y-159.5
X144.62Y-162.04
X144.62Y-164.58
X144.62Y-167.12
X145.0Y-57.0
X145.0Y-99.5
X145.96Y-50.77
X146.04Y-112.27
X146.5Y-61.5
X147.54Y-96.96
X147.62Y-74.5
X147.62Y-77.04
X147.62Y-79.58
X147.62Y-82.12
X148.5Y-48.23
X149.0Y-61.5
X149.0Y-144.0
X149.5Y-159.5
X150.08Y-99.5
X150.12Y-129.5
X150.12Y-132.04
X150.12Y-134.58
X150.12Y-137.12
X151.04Y-50.77
X152.0Y-159.5
X152.5Y-82.0
X152.5Y-99.5
X152.5Y-102.0
X155.0Y-82.0
X156.0Y-127.0
X158.5Y-127.0
T4
X135.0Y-94.5
X137.54Y-94.5
T5
X151.5Y-67.5
X151.5Y-70.04
X157.0Y-161.92
X157.0Y-164.46
X157.46Y-57.0
X159.46Y-94.34
X159.46Y-96.88
X159.46Y-99.42
X159.46Y-101.96
X159.46Y-104.5
X160.0Y-57.0
X162.0Y-94.34
X162.0Y-96.88
X162.0Y-99.42
X162.0Y-101.96
X162.0Y-104.5
T6
X122.5Y-87.0
X122.5Y-102.0
X132.66Y-87.0
X132.66Y-102.0
T7
X112.5Y-49.5
X112.5Y-54.5
X112.5Y-59.5
X112.5Y-69.5
X112.5Y-74.5
X112.5Y-79.5
X112.5Y-89.5
X112.5Y-94.5
X112.5Y-99.5
X112.5Y-109.5
X112.5Y-114.5
X112.5Y-119.5
X112.5Y-129.5
X112.5Y-134.5
X112.5Y-139.5
X112.5Y-149.5
X112.5Y-154.5
X112.5Y-159.5
X112.5Y-169.5
X112.5Y-174.5
X112.5Y-179.5
T0
M30
