%FSLAX45Y45*%
G04 Gerber Fmt 4.5, Leading zero omitted, Abs format (unit mm)*
G04 Created by KiCad (PCBNEW 6.0.6-3a73a75311~116~ubuntu20.04.1) date 2022-07-16 23:39:22*
%MOMM*%
%LPD*%
G01*
G04 APERTURE LIST*
%TA.AperFunction,Profile*%
%ADD10C,0.050000*%
%TD*%
%ADD11C,0.200000*%
%ADD12C,0.060000*%
%ADD13C,0.070000*%
%ADD14C,0.080000*%
%ADD15C,0.090000*%
%ADD16C,0.100000*%
%ADD17C,0.110000*%
%ADD18C,0.130000*%
G04 APERTURE END LIST*
D10*
X10900000Y-18600000D02*
X10900000Y-4500000D01*
X16700000Y-4500000D02*
X16700000Y-18600000D01*
X10900000Y-4500000D02*
X16700000Y-4500000D01*
X16700000Y-18600000D02*
X10900000Y-18600000D01*
D11*
D12*
X16070000Y-8370000D02*
X16130000Y-8430000D01*
X16130000Y-8370000D02*
X16070000Y-8430000D01*
X16070000Y-11520000D02*
X16130000Y-11580000D01*
X16130000Y-11520000D02*
X16070000Y-11580000D01*
X16270000Y-8370000D02*
X16330000Y-8430000D01*
X16330000Y-8370000D02*
X16270000Y-8430000D01*
X16270000Y-11520000D02*
X16330000Y-11580000D01*
X16330000Y-11520000D02*
X16270000Y-11580000D01*
D13*
X12231000Y-16200000D02*
G75*
G03*
X12231000Y-16200000I-35000J0D01*
G01*
X12281000Y-8200000D02*
G75*
G03*
X12281000Y-8200000I-35000J0D01*
G01*
X12485000Y-16200000D02*
G75*
G03*
X12485000Y-16200000I-35000J0D01*
G01*
X12535000Y-4696000D02*
G75*
G03*
X12535000Y-4696000I-35000J0D01*
G01*
X12535000Y-4950000D02*
G75*
G03*
X12535000Y-4950000I-35000J0D01*
G01*
X12535000Y-8200000D02*
G75*
G03*
X12535000Y-8200000I-35000J0D01*
G01*
X12781000Y-13450000D02*
G75*
G03*
X12781000Y-13450000I-35000J0D01*
G01*
X12785000Y-10950000D02*
G75*
G03*
X12785000Y-10950000I-35000J0D01*
G01*
X12985000Y-15950000D02*
G75*
G03*
X12985000Y-15950000I-35000J0D01*
G01*
X13035000Y-13450000D02*
G75*
G03*
X13035000Y-13450000I-35000J0D01*
G01*
X13039000Y-10950000D02*
G75*
G03*
X13039000Y-10950000I-35000J0D01*
G01*
X13239000Y-15950000D02*
G75*
G03*
X13239000Y-15950000I-35000J0D01*
G01*
X13635000Y-15300000D02*
G75*
G03*
X13635000Y-15300000I-35000J0D01*
G01*
X13785000Y-8700000D02*
G75*
G03*
X13785000Y-8700000I-35000J0D01*
G01*
X13785000Y-12946000D02*
G75*
G03*
X13785000Y-12946000I-35000J0D01*
G01*
X13785000Y-13200000D02*
G75*
G03*
X13785000Y-13200000I-35000J0D01*
G01*
X13889000Y-15300000D02*
G75*
G03*
X13889000Y-15300000I-35000J0D01*
G01*
X14035000Y-10196000D02*
G75*
G03*
X14035000Y-10196000I-35000J0D01*
G01*
X14035000Y-10450000D02*
G75*
G03*
X14035000Y-10450000I-35000J0D01*
G01*
X14039000Y-8700000D02*
G75*
G03*
X14039000Y-8700000I-35000J0D01*
G01*
X14231000Y-7000000D02*
G75*
G03*
X14231000Y-7000000I-35000J0D01*
G01*
X14485000Y-7000000D02*
G75*
G03*
X14485000Y-7000000I-35000J0D01*
G01*
X14535000Y-8950000D02*
G75*
G03*
X14535000Y-8950000I-35000J0D01*
G01*
X14785000Y-12200000D02*
G75*
G03*
X14785000Y-12200000I-35000J0D01*
G01*
X14789000Y-8950000D02*
G75*
G03*
X14789000Y-8950000I-35000J0D01*
G01*
X14985000Y-16600000D02*
G75*
G03*
X14985000Y-16600000I-35000J0D01*
G01*
X15031000Y-5700000D02*
G75*
G03*
X15031000Y-5700000I-35000J0D01*
G01*
X15039000Y-12200000D02*
G75*
G03*
X15039000Y-12200000I-35000J0D01*
G01*
X15239000Y-16600000D02*
G75*
G03*
X15239000Y-16600000I-35000J0D01*
G01*
X15285000Y-5700000D02*
G75*
G03*
X15285000Y-5700000I-35000J0D01*
G01*
X15285000Y-7446000D02*
G75*
G03*
X15285000Y-7446000I-35000J0D01*
G01*
X15285000Y-7700000D02*
G75*
G03*
X15285000Y-7700000I-35000J0D01*
G01*
X15285000Y-8946000D02*
G75*
G03*
X15285000Y-8946000I-35000J0D01*
G01*
X15285000Y-9200000D02*
G75*
G03*
X15285000Y-9200000I-35000J0D01*
G01*
X15285000Y-10950000D02*
G75*
G03*
X15285000Y-10950000I-35000J0D01*
G01*
X15285000Y-11204000D02*
G75*
G03*
X15285000Y-11204000I-35000J0D01*
G01*
X15531000Y-4950000D02*
G75*
G03*
X15531000Y-4950000I-35000J0D01*
G01*
X15535000Y-13196000D02*
G75*
G03*
X15535000Y-13196000I-35000J0D01*
G01*
X15535000Y-13450000D02*
G75*
G03*
X15535000Y-13450000I-35000J0D01*
G01*
X15635000Y-13900000D02*
G75*
G03*
X15635000Y-13900000I-35000J0D01*
G01*
X15785000Y-4950000D02*
G75*
G03*
X15785000Y-4950000I-35000J0D01*
G01*
X15889000Y-13900000D02*
G75*
G03*
X15889000Y-13900000I-35000J0D01*
G01*
D14*
X12250000Y-11910000D02*
X12250000Y-11990000D01*
X12210000Y-11950000D02*
X12290000Y-11950000D01*
X12296000Y-6360000D02*
X12296000Y-6440000D01*
X12256000Y-6400000D02*
X12336000Y-6400000D01*
X12500000Y-11910000D02*
X12500000Y-11990000D01*
X12460000Y-11950000D02*
X12540000Y-11950000D01*
X12500000Y-13910000D02*
X12500000Y-13990000D01*
X12460000Y-13950000D02*
X12540000Y-13950000D01*
X12500000Y-14160000D02*
X12500000Y-14240000D01*
X12460000Y-14200000D02*
X12540000Y-14200000D01*
X12550000Y-6106000D02*
X12550000Y-6186000D01*
X12510000Y-6146000D02*
X12590000Y-6146000D01*
X12804000Y-6360000D02*
X12804000Y-6440000D01*
X12764000Y-6400000D02*
X12844000Y-6400000D01*
X13000000Y-4910000D02*
X13000000Y-4990000D01*
X12960000Y-4950000D02*
X13040000Y-4950000D01*
X13000000Y-5164000D02*
X13000000Y-5244000D01*
X12960000Y-5204000D02*
X13040000Y-5204000D01*
X13000000Y-5418000D02*
X13000000Y-5498000D01*
X12960000Y-5458000D02*
X13040000Y-5458000D01*
X13000000Y-5672000D02*
X13000000Y-5752000D01*
X12960000Y-5712000D02*
X13040000Y-5712000D01*
X13200000Y-16410000D02*
X13200000Y-16490000D01*
X13160000Y-16450000D02*
X13240000Y-16450000D01*
X13200000Y-16660000D02*
X13200000Y-16740000D01*
X13160000Y-16700000D02*
X13240000Y-16700000D01*
X13250000Y-7410000D02*
X13250000Y-7490000D01*
X13210000Y-7450000D02*
X13290000Y-7450000D01*
X13250000Y-7660000D02*
X13250000Y-7740000D01*
X13210000Y-7700000D02*
X13290000Y-7700000D01*
X13500000Y-13660000D02*
X13500000Y-13740000D01*
X13460000Y-13700000D02*
X13540000Y-13700000D01*
X13700000Y-6460000D02*
X13700000Y-6540000D01*
X13660000Y-6500000D02*
X13740000Y-6500000D01*
X13700000Y-15910000D02*
X13700000Y-15990000D01*
X13660000Y-15950000D02*
X13740000Y-15950000D01*
X13700000Y-16164000D02*
X13700000Y-16244000D01*
X13660000Y-16204000D02*
X13740000Y-16204000D01*
X13700000Y-16418000D02*
X13700000Y-16498000D01*
X13660000Y-16458000D02*
X13740000Y-16458000D01*
X13700000Y-16672000D02*
X13700000Y-16752000D01*
X13660000Y-16712000D02*
X13740000Y-16712000D01*
X13750000Y-13660000D02*
X13750000Y-13740000D01*
X13710000Y-13700000D02*
X13790000Y-13700000D01*
X13762000Y-4910000D02*
X13762000Y-4990000D01*
X13722000Y-4950000D02*
X13802000Y-4950000D01*
X13762000Y-5164000D02*
X13762000Y-5244000D01*
X13722000Y-5204000D02*
X13802000Y-5204000D01*
X13762000Y-5418000D02*
X13762000Y-5498000D01*
X13722000Y-5458000D02*
X13802000Y-5458000D01*
X13762000Y-5672000D02*
X13762000Y-5752000D01*
X13722000Y-5712000D02*
X13802000Y-5712000D01*
X14000000Y-7410000D02*
X14000000Y-7490000D01*
X13960000Y-7450000D02*
X14040000Y-7450000D01*
X14000000Y-7664000D02*
X14000000Y-7744000D01*
X13960000Y-7704000D02*
X14040000Y-7704000D01*
X14000000Y-7918000D02*
X14000000Y-7998000D01*
X13960000Y-7958000D02*
X14040000Y-7958000D01*
X14000000Y-8172000D02*
X14000000Y-8252000D01*
X13960000Y-8212000D02*
X14040000Y-8212000D01*
X14096000Y-11187000D02*
X14096000Y-11267000D01*
X14056000Y-11227000D02*
X14136000Y-11227000D01*
X14200000Y-6460000D02*
X14200000Y-6540000D01*
X14160000Y-6500000D02*
X14240000Y-6500000D01*
X14250000Y-5660000D02*
X14250000Y-5740000D01*
X14210000Y-5700000D02*
X14290000Y-5700000D01*
X14250000Y-11910000D02*
X14250000Y-11990000D01*
X14210000Y-11950000D02*
X14290000Y-11950000D01*
X14250000Y-12410000D02*
X14250000Y-12490000D01*
X14210000Y-12450000D02*
X14290000Y-12450000D01*
X14250000Y-12910000D02*
X14250000Y-12990000D01*
X14210000Y-12950000D02*
X14290000Y-12950000D01*
X14250000Y-13164000D02*
X14250000Y-13244000D01*
X14210000Y-13204000D02*
X14290000Y-13204000D01*
X14250000Y-13418000D02*
X14250000Y-13498000D01*
X14210000Y-13458000D02*
X14290000Y-13458000D01*
X14250000Y-13672000D02*
X14250000Y-13752000D01*
X14210000Y-13712000D02*
X14290000Y-13712000D01*
X14350000Y-10933000D02*
X14350000Y-11013000D01*
X14310000Y-10973000D02*
X14390000Y-10973000D01*
X14400000Y-14360000D02*
X14400000Y-14440000D01*
X14360000Y-14400000D02*
X14440000Y-14400000D01*
X14462000Y-15910000D02*
X14462000Y-15990000D01*
X14422000Y-15950000D02*
X14502000Y-15950000D01*
X14462000Y-16164000D02*
X14462000Y-16244000D01*
X14422000Y-16204000D02*
X14502000Y-16204000D01*
X14462000Y-16418000D02*
X14462000Y-16498000D01*
X14422000Y-16458000D02*
X14502000Y-16458000D01*
X14462000Y-16672000D02*
X14462000Y-16752000D01*
X14422000Y-16712000D02*
X14502000Y-16712000D01*
X14500000Y-5660000D02*
X14500000Y-5740000D01*
X14460000Y-5700000D02*
X14540000Y-5700000D01*
X14500000Y-9910000D02*
X14500000Y-9990000D01*
X14460000Y-9950000D02*
X14540000Y-9950000D01*
X14596000Y-5037000D02*
X14596000Y-5117000D01*
X14556000Y-5077000D02*
X14636000Y-5077000D01*
X14604000Y-11187000D02*
X14604000Y-11267000D01*
X14564000Y-11227000D02*
X14644000Y-11227000D01*
X14650000Y-6110000D02*
X14650000Y-6190000D01*
X14610000Y-6150000D02*
X14690000Y-6150000D01*
X14754000Y-9656000D02*
X14754000Y-9736000D01*
X14714000Y-9696000D02*
X14794000Y-9696000D01*
X14762000Y-7410000D02*
X14762000Y-7490000D01*
X14722000Y-7450000D02*
X14802000Y-7450000D01*
X14762000Y-7664000D02*
X14762000Y-7744000D01*
X14722000Y-7704000D02*
X14802000Y-7704000D01*
X14762000Y-7918000D02*
X14762000Y-7998000D01*
X14722000Y-7958000D02*
X14802000Y-7958000D01*
X14762000Y-8172000D02*
X14762000Y-8252000D01*
X14722000Y-8212000D02*
X14802000Y-8212000D01*
X14850000Y-4783000D02*
X14850000Y-4863000D01*
X14810000Y-4823000D02*
X14890000Y-4823000D01*
X14900000Y-6110000D02*
X14900000Y-6190000D01*
X14860000Y-6150000D02*
X14940000Y-6150000D01*
X14900000Y-14360000D02*
X14900000Y-14440000D01*
X14860000Y-14400000D02*
X14940000Y-14400000D01*
X14950000Y-15910000D02*
X14950000Y-15990000D01*
X14910000Y-15950000D02*
X14990000Y-15950000D01*
X15008000Y-9910000D02*
X15008000Y-9990000D01*
X14968000Y-9950000D02*
X15048000Y-9950000D01*
X15012000Y-12910000D02*
X15012000Y-12990000D01*
X14972000Y-12950000D02*
X15052000Y-12950000D01*
X15012000Y-13164000D02*
X15012000Y-13244000D01*
X14972000Y-13204000D02*
X15052000Y-13204000D01*
X15012000Y-13418000D02*
X15012000Y-13498000D01*
X14972000Y-13458000D02*
X15052000Y-13458000D01*
X15012000Y-13672000D02*
X15012000Y-13752000D01*
X14972000Y-13712000D02*
X15052000Y-13712000D01*
X15104000Y-5037000D02*
X15104000Y-5117000D01*
X15064000Y-5077000D02*
X15144000Y-5077000D01*
X15200000Y-15910000D02*
X15200000Y-15990000D01*
X15160000Y-15950000D02*
X15240000Y-15950000D01*
X15250000Y-8160000D02*
X15250000Y-8240000D01*
X15210000Y-8200000D02*
X15290000Y-8200000D01*
X15250000Y-9910000D02*
X15250000Y-9990000D01*
X15210000Y-9950000D02*
X15290000Y-9950000D01*
X15250000Y-10160000D02*
X15250000Y-10240000D01*
X15210000Y-10200000D02*
X15290000Y-10200000D01*
X15500000Y-8160000D02*
X15500000Y-8240000D01*
X15460000Y-8200000D02*
X15540000Y-8200000D01*
X15600000Y-12660000D02*
X15600000Y-12740000D01*
X15560000Y-12700000D02*
X15640000Y-12700000D01*
X15850000Y-12660000D02*
X15850000Y-12740000D01*
X15810000Y-12700000D02*
X15890000Y-12700000D01*
D15*
X13531820Y-9481820D02*
X13531820Y-9418180D01*
X13468180Y-9418180D01*
X13468180Y-9481820D01*
X13531820Y-9481820D01*
X13785820Y-9481820D02*
X13785820Y-9418180D01*
X13722180Y-9418180D01*
X13722180Y-9481820D01*
X13785820Y-9481820D01*
D16*
X15150000Y-6800000D02*
X15200000Y-6750000D01*
X15150000Y-6700000D01*
X15100000Y-6750000D01*
X15150000Y-6800000D01*
X15150000Y-7054000D02*
X15200000Y-7004000D01*
X15150000Y-6954000D01*
X15100000Y-7004000D01*
X15150000Y-7054000D01*
X15700000Y-16242000D02*
X15750000Y-16192000D01*
X15700000Y-16142000D01*
X15650000Y-16192000D01*
X15700000Y-16242000D01*
X15700000Y-16496000D02*
X15750000Y-16446000D01*
X15700000Y-16396000D01*
X15650000Y-16446000D01*
X15700000Y-16496000D01*
X15746000Y-5750000D02*
X15796000Y-5700000D01*
X15746000Y-5650000D01*
X15696000Y-5700000D01*
X15746000Y-5750000D01*
X15946000Y-9484000D02*
X15996000Y-9434000D01*
X15946000Y-9384000D01*
X15896000Y-9434000D01*
X15946000Y-9484000D01*
X15946000Y-9738000D02*
X15996000Y-9688000D01*
X15946000Y-9638000D01*
X15896000Y-9688000D01*
X15946000Y-9738000D01*
X15946000Y-9992000D02*
X15996000Y-9942000D01*
X15946000Y-9892000D01*
X15896000Y-9942000D01*
X15946000Y-9992000D01*
X15946000Y-10246000D02*
X15996000Y-10196000D01*
X15946000Y-10146000D01*
X15896000Y-10196000D01*
X15946000Y-10246000D01*
X15946000Y-10500000D02*
X15996000Y-10450000D01*
X15946000Y-10400000D01*
X15896000Y-10450000D01*
X15946000Y-10500000D01*
X16000000Y-5750000D02*
X16050000Y-5700000D01*
X16000000Y-5650000D01*
X15950000Y-5700000D01*
X16000000Y-5750000D01*
X16200000Y-9484000D02*
X16250000Y-9434000D01*
X16200000Y-9384000D01*
X16150000Y-9434000D01*
X16200000Y-9484000D01*
X16200000Y-9738000D02*
X16250000Y-9688000D01*
X16200000Y-9638000D01*
X16150000Y-9688000D01*
X16200000Y-9738000D01*
X16200000Y-9992000D02*
X16250000Y-9942000D01*
X16200000Y-9892000D01*
X16150000Y-9942000D01*
X16200000Y-9992000D01*
X16200000Y-10246000D02*
X16250000Y-10196000D01*
X16200000Y-10146000D01*
X16150000Y-10196000D01*
X16200000Y-10246000D01*
X16200000Y-10500000D02*
X16250000Y-10450000D01*
X16200000Y-10400000D01*
X16150000Y-10450000D01*
X16200000Y-10500000D01*
D17*
X12195000Y-8645000D02*
X12305000Y-8755000D01*
X12305000Y-8645000D02*
X12195000Y-8755000D01*
X12305000Y-8700000D02*
G75*
G03*
X12305000Y-8700000I-55000J0D01*
G01*
X12195000Y-10145000D02*
X12305000Y-10255000D01*
X12305000Y-10145000D02*
X12195000Y-10255000D01*
X12305000Y-10200000D02*
G75*
G03*
X12305000Y-10200000I-55000J0D01*
G01*
X13211000Y-8645000D02*
X13321000Y-8755000D01*
X13321000Y-8645000D02*
X13211000Y-8755000D01*
X13321000Y-8700000D02*
G75*
G03*
X13321000Y-8700000I-55000J0D01*
G01*
X13211000Y-10145000D02*
X13321000Y-10255000D01*
X13321000Y-10145000D02*
X13211000Y-10255000D01*
X13321000Y-10200000D02*
G75*
G03*
X13321000Y-10200000I-55000J0D01*
G01*
D18*
X11185000Y-4885000D02*
X11315000Y-5015000D01*
X11315000Y-4885000D02*
X11185000Y-5015000D01*
X11250000Y-4885000D02*
X11250000Y-5015000D01*
X11185000Y-4950000D02*
X11315000Y-4950000D01*
X11185000Y-5385000D02*
X11315000Y-5515000D01*
X11315000Y-5385000D02*
X11185000Y-5515000D01*
X11250000Y-5385000D02*
X11250000Y-5515000D01*
X11185000Y-5450000D02*
X11315000Y-5450000D01*
X11185000Y-5885000D02*
X11315000Y-6015000D01*
X11315000Y-5885000D02*
X11185000Y-6015000D01*
X11250000Y-5885000D02*
X11250000Y-6015000D01*
X11185000Y-5950000D02*
X11315000Y-5950000D01*
X11185000Y-6885000D02*
X11315000Y-7015000D01*
X11315000Y-6885000D02*
X11185000Y-7015000D01*
X11250000Y-6885000D02*
X11250000Y-7015000D01*
X11185000Y-6950000D02*
X11315000Y-6950000D01*
X11185000Y-7385000D02*
X11315000Y-7515000D01*
X11315000Y-7385000D02*
X11185000Y-7515000D01*
X11250000Y-7385000D02*
X11250000Y-7515000D01*
X11185000Y-7450000D02*
X11315000Y-7450000D01*
X11185000Y-7885000D02*
X11315000Y-8015000D01*
X11315000Y-7885000D02*
X11185000Y-8015000D01*
X11250000Y-7885000D02*
X11250000Y-8015000D01*
X11185000Y-7950000D02*
X11315000Y-7950000D01*
X11185000Y-8885000D02*
X11315000Y-9015000D01*
X11315000Y-8885000D02*
X11185000Y-9015000D01*
X11250000Y-8885000D02*
X11250000Y-9015000D01*
X11185000Y-8950000D02*
X11315000Y-8950000D01*
X11185000Y-9385000D02*
X11315000Y-9515000D01*
X11315000Y-9385000D02*
X11185000Y-9515000D01*
X11250000Y-9385000D02*
X11250000Y-9515000D01*
X11185000Y-9450000D02*
X11315000Y-9450000D01*
X11185000Y-9885000D02*
X11315000Y-10015000D01*
X11315000Y-9885000D02*
X11185000Y-10015000D01*
X11250000Y-9885000D02*
X11250000Y-10015000D01*
X11185000Y-9950000D02*
X11315000Y-9950000D01*
X11185000Y-10885000D02*
X11315000Y-11015000D01*
X11315000Y-10885000D02*
X11185000Y-11015000D01*
X11250000Y-10885000D02*
X11250000Y-11015000D01*
X11185000Y-10950000D02*
X11315000Y-10950000D01*
X11185000Y-11385000D02*
X11315000Y-11515000D01*
X11315000Y-11385000D02*
X11185000Y-11515000D01*
X11250000Y-11385000D02*
X11250000Y-11515000D01*
X11185000Y-11450000D02*
X11315000Y-11450000D01*
X11185000Y-11885000D02*
X11315000Y-12015000D01*
X11315000Y-11885000D02*
X11185000Y-12015000D01*
X11250000Y-11885000D02*
X11250000Y-12015000D01*
X11185000Y-11950000D02*
X11315000Y-11950000D01*
X11185000Y-12885000D02*
X11315000Y-13015000D01*
X11315000Y-12885000D02*
X11185000Y-13015000D01*
X11250000Y-12885000D02*
X11250000Y-13015000D01*
X11185000Y-12950000D02*
X11315000Y-12950000D01*
X11185000Y-13385000D02*
X11315000Y-13515000D01*
X11315000Y-13385000D02*
X11185000Y-13515000D01*
X11250000Y-13385000D02*
X11250000Y-13515000D01*
X11185000Y-13450000D02*
X11315000Y-13450000D01*
X11185000Y-13885000D02*
X11315000Y-14015000D01*
X11315000Y-13885000D02*
X11185000Y-14015000D01*
X11250000Y-13885000D02*
X11250000Y-14015000D01*
X11185000Y-13950000D02*
X11315000Y-13950000D01*
X11185000Y-14885000D02*
X11315000Y-15015000D01*
X11315000Y-14885000D02*
X11185000Y-15015000D01*
X11250000Y-14885000D02*
X11250000Y-15015000D01*
X11185000Y-14950000D02*
X11315000Y-14950000D01*
X11185000Y-15385000D02*
X11315000Y-15515000D01*
X11315000Y-15385000D02*
X11185000Y-15515000D01*
X11250000Y-15385000D02*
X11250000Y-15515000D01*
X11185000Y-15450000D02*
X11315000Y-15450000D01*
X11185000Y-15885000D02*
X11315000Y-16015000D01*
X11315000Y-15885000D02*
X11185000Y-16015000D01*
X11250000Y-15885000D02*
X11250000Y-16015000D01*
X11185000Y-15950000D02*
X11315000Y-15950000D01*
X11185000Y-16885000D02*
X11315000Y-17015000D01*
X11315000Y-16885000D02*
X11185000Y-17015000D01*
X11250000Y-16885000D02*
X11250000Y-17015000D01*
X11185000Y-16950000D02*
X11315000Y-16950000D01*
X11185000Y-17385000D02*
X11315000Y-17515000D01*
X11315000Y-17385000D02*
X11185000Y-17515000D01*
X11250000Y-17385000D02*
X11250000Y-17515000D01*
X11185000Y-17450000D02*
X11315000Y-17450000D01*
X11185000Y-17885000D02*
X11315000Y-18015000D01*
X11315000Y-17885000D02*
X11185000Y-18015000D01*
X11250000Y-17885000D02*
X11250000Y-18015000D01*
X11185000Y-17950000D02*
X11315000Y-17950000D01*
D11*
X11155119Y-18912976D02*
X11155119Y-18712976D01*
X11202738Y-18712976D01*
X11231309Y-18722500D01*
X11250357Y-18741548D01*
X11259881Y-18760595D01*
X11269405Y-18798690D01*
X11269405Y-18827262D01*
X11259881Y-18865357D01*
X11250357Y-18884405D01*
X11231309Y-18903452D01*
X11202738Y-18912976D01*
X11155119Y-18912976D01*
X11355119Y-18912976D02*
X11355119Y-18779643D01*
X11355119Y-18817738D02*
X11364643Y-18798690D01*
X11374167Y-18789167D01*
X11393214Y-18779643D01*
X11412262Y-18779643D01*
X11478928Y-18912976D02*
X11478928Y-18779643D01*
X11478928Y-18712976D02*
X11469405Y-18722500D01*
X11478928Y-18732024D01*
X11488452Y-18722500D01*
X11478928Y-18712976D01*
X11478928Y-18732024D01*
X11602738Y-18912976D02*
X11583690Y-18903452D01*
X11574167Y-18884405D01*
X11574167Y-18712976D01*
X11707500Y-18912976D02*
X11688452Y-18903452D01*
X11678928Y-18884405D01*
X11678928Y-18712976D01*
X11936071Y-18912976D02*
X11936071Y-18712976D01*
X12002738Y-18855833D01*
X12069405Y-18712976D01*
X12069405Y-18912976D01*
X12250357Y-18912976D02*
X12250357Y-18808214D01*
X12240833Y-18789167D01*
X12221786Y-18779643D01*
X12183690Y-18779643D01*
X12164643Y-18789167D01*
X12250357Y-18903452D02*
X12231309Y-18912976D01*
X12183690Y-18912976D01*
X12164643Y-18903452D01*
X12155119Y-18884405D01*
X12155119Y-18865357D01*
X12164643Y-18846310D01*
X12183690Y-18836786D01*
X12231309Y-18836786D01*
X12250357Y-18827262D01*
X12345595Y-18779643D02*
X12345595Y-18979643D01*
X12345595Y-18789167D02*
X12364643Y-18779643D01*
X12402738Y-18779643D01*
X12421786Y-18789167D01*
X12431309Y-18798690D01*
X12440833Y-18817738D01*
X12440833Y-18874881D01*
X12431309Y-18893929D01*
X12421786Y-18903452D01*
X12402738Y-18912976D01*
X12364643Y-18912976D01*
X12345595Y-18903452D01*
X12526548Y-18893929D02*
X12536071Y-18903452D01*
X12526548Y-18912976D01*
X12517024Y-18903452D01*
X12526548Y-18893929D01*
X12526548Y-18912976D01*
X12526548Y-18789167D02*
X12536071Y-18798690D01*
X12526548Y-18808214D01*
X12517024Y-18798690D01*
X12526548Y-18789167D01*
X12526548Y-18808214D01*
D12*
X10837500Y-19212500D02*
X10897500Y-19272500D01*
X10897500Y-19212500D02*
X10837500Y-19272500D01*
D11*
X11193214Y-19132976D02*
X11212262Y-19132976D01*
X11231309Y-19142500D01*
X11240833Y-19152024D01*
X11250357Y-19171071D01*
X11259881Y-19209167D01*
X11259881Y-19256786D01*
X11250357Y-19294881D01*
X11240833Y-19313929D01*
X11231309Y-19323452D01*
X11212262Y-19332976D01*
X11193214Y-19332976D01*
X11174167Y-19323452D01*
X11164643Y-19313929D01*
X11155119Y-19294881D01*
X11145595Y-19256786D01*
X11145595Y-19209167D01*
X11155119Y-19171071D01*
X11164643Y-19152024D01*
X11174167Y-19142500D01*
X11193214Y-19132976D01*
X11345595Y-19313929D02*
X11355119Y-19323452D01*
X11345595Y-19332976D01*
X11336071Y-19323452D01*
X11345595Y-19313929D01*
X11345595Y-19332976D01*
X11526548Y-19132976D02*
X11488452Y-19132976D01*
X11469405Y-19142500D01*
X11459881Y-19152024D01*
X11440833Y-19180595D01*
X11431309Y-19218690D01*
X11431309Y-19294881D01*
X11440833Y-19313929D01*
X11450357Y-19323452D01*
X11469405Y-19332976D01*
X11507500Y-19332976D01*
X11526548Y-19323452D01*
X11536071Y-19313929D01*
X11545595Y-19294881D01*
X11545595Y-19247262D01*
X11536071Y-19228214D01*
X11526548Y-19218690D01*
X11507500Y-19209167D01*
X11469405Y-19209167D01*
X11450357Y-19218690D01*
X11440833Y-19228214D01*
X11431309Y-19247262D01*
X11669405Y-19132976D02*
X11688452Y-19132976D01*
X11707500Y-19142500D01*
X11717024Y-19152024D01*
X11726548Y-19171071D01*
X11736071Y-19209167D01*
X11736071Y-19256786D01*
X11726548Y-19294881D01*
X11717024Y-19313929D01*
X11707500Y-19323452D01*
X11688452Y-19332976D01*
X11669405Y-19332976D01*
X11650357Y-19323452D01*
X11640833Y-19313929D01*
X11631309Y-19294881D01*
X11621786Y-19256786D01*
X11621786Y-19209167D01*
X11631309Y-19171071D01*
X11640833Y-19152024D01*
X11650357Y-19142500D01*
X11669405Y-19132976D01*
X11859881Y-19132976D02*
X11878928Y-19132976D01*
X11897976Y-19142500D01*
X11907500Y-19152024D01*
X11917024Y-19171071D01*
X11926548Y-19209167D01*
X11926548Y-19256786D01*
X11917024Y-19294881D01*
X11907500Y-19313929D01*
X11897976Y-19323452D01*
X11878928Y-19332976D01*
X11859881Y-19332976D01*
X11840833Y-19323452D01*
X11831309Y-19313929D01*
X11821786Y-19294881D01*
X11812262Y-19256786D01*
X11812262Y-19209167D01*
X11821786Y-19171071D01*
X11831309Y-19152024D01*
X11840833Y-19142500D01*
X11859881Y-19132976D01*
X12012262Y-19332976D02*
X12012262Y-19199643D01*
X12012262Y-19218690D02*
X12021786Y-19209167D01*
X12040833Y-19199643D01*
X12069405Y-19199643D01*
X12088452Y-19209167D01*
X12097976Y-19228214D01*
X12097976Y-19332976D01*
X12097976Y-19228214D02*
X12107500Y-19209167D01*
X12126548Y-19199643D01*
X12155119Y-19199643D01*
X12174167Y-19209167D01*
X12183690Y-19228214D01*
X12183690Y-19332976D01*
X12278928Y-19332976D02*
X12278928Y-19199643D01*
X12278928Y-19218690D02*
X12288452Y-19209167D01*
X12307500Y-19199643D01*
X12336071Y-19199643D01*
X12355119Y-19209167D01*
X12364643Y-19228214D01*
X12364643Y-19332976D01*
X12364643Y-19228214D02*
X12374167Y-19209167D01*
X12393214Y-19199643D01*
X12421786Y-19199643D01*
X12440833Y-19209167D01*
X12450357Y-19228214D01*
X12450357Y-19332976D01*
X12840833Y-19123452D02*
X12669405Y-19380595D01*
X13097976Y-19132976D02*
X13117024Y-19132976D01*
X13136071Y-19142500D01*
X13145595Y-19152024D01*
X13155119Y-19171071D01*
X13164643Y-19209167D01*
X13164643Y-19256786D01*
X13155119Y-19294881D01*
X13145595Y-19313929D01*
X13136071Y-19323452D01*
X13117024Y-19332976D01*
X13097976Y-19332976D01*
X13078928Y-19323452D01*
X13069405Y-19313929D01*
X13059881Y-19294881D01*
X13050357Y-19256786D01*
X13050357Y-19209167D01*
X13059881Y-19171071D01*
X13069405Y-19152024D01*
X13078928Y-19142500D01*
X13097976Y-19132976D01*
X13250357Y-19313929D02*
X13259881Y-19323452D01*
X13250357Y-19332976D01*
X13240833Y-19323452D01*
X13250357Y-19313929D01*
X13250357Y-19332976D01*
X13383690Y-19132976D02*
X13402738Y-19132976D01*
X13421786Y-19142500D01*
X13431309Y-19152024D01*
X13440833Y-19171071D01*
X13450357Y-19209167D01*
X13450357Y-19256786D01*
X13440833Y-19294881D01*
X13431309Y-19313929D01*
X13421786Y-19323452D01*
X13402738Y-19332976D01*
X13383690Y-19332976D01*
X13364643Y-19323452D01*
X13355119Y-19313929D01*
X13345595Y-19294881D01*
X13336071Y-19256786D01*
X13336071Y-19209167D01*
X13345595Y-19171071D01*
X13355119Y-19152024D01*
X13364643Y-19142500D01*
X13383690Y-19132976D01*
X13526548Y-19152024D02*
X13536071Y-19142500D01*
X13555119Y-19132976D01*
X13602738Y-19132976D01*
X13621786Y-19142500D01*
X13631309Y-19152024D01*
X13640833Y-19171071D01*
X13640833Y-19190119D01*
X13631309Y-19218690D01*
X13517024Y-19332976D01*
X13640833Y-19332976D01*
X13707500Y-19132976D02*
X13831309Y-19132976D01*
X13764643Y-19209167D01*
X13793214Y-19209167D01*
X13812262Y-19218690D01*
X13821786Y-19228214D01*
X13831309Y-19247262D01*
X13831309Y-19294881D01*
X13821786Y-19313929D01*
X13812262Y-19323452D01*
X13793214Y-19332976D01*
X13736071Y-19332976D01*
X13717024Y-19323452D01*
X13707500Y-19313929D01*
X14002738Y-19132976D02*
X13964643Y-19132976D01*
X13945595Y-19142500D01*
X13936071Y-19152024D01*
X13917024Y-19180595D01*
X13907500Y-19218690D01*
X13907500Y-19294881D01*
X13917024Y-19313929D01*
X13926548Y-19323452D01*
X13945595Y-19332976D01*
X13983690Y-19332976D01*
X14002738Y-19323452D01*
X14012262Y-19313929D01*
X14021786Y-19294881D01*
X14021786Y-19247262D01*
X14012262Y-19228214D01*
X14002738Y-19218690D01*
X13983690Y-19209167D01*
X13945595Y-19209167D01*
X13926548Y-19218690D01*
X13917024Y-19228214D01*
X13907500Y-19247262D01*
X14097976Y-19132976D02*
X14097976Y-19171071D01*
X14174167Y-19132976D02*
X14174167Y-19171071D01*
X14469405Y-19409167D02*
X14459881Y-19399643D01*
X14440833Y-19371071D01*
X14431309Y-19352024D01*
X14421786Y-19323452D01*
X14412262Y-19275833D01*
X14412262Y-19237738D01*
X14421786Y-19190119D01*
X14431309Y-19161548D01*
X14440833Y-19142500D01*
X14459881Y-19113929D01*
X14469405Y-19104405D01*
X14631309Y-19199643D02*
X14631309Y-19332976D01*
X14583690Y-19123452D02*
X14536071Y-19266310D01*
X14659881Y-19266310D01*
X14888452Y-19332976D02*
X14888452Y-19132976D01*
X14974167Y-19332976D02*
X14974167Y-19228214D01*
X14964643Y-19209167D01*
X14945595Y-19199643D01*
X14917024Y-19199643D01*
X14897976Y-19209167D01*
X14888452Y-19218690D01*
X15097976Y-19332976D02*
X15078928Y-19323452D01*
X15069405Y-19313929D01*
X15059881Y-19294881D01*
X15059881Y-19237738D01*
X15069405Y-19218690D01*
X15078928Y-19209167D01*
X15097976Y-19199643D01*
X15126548Y-19199643D01*
X15145595Y-19209167D01*
X15155119Y-19218690D01*
X15164643Y-19237738D01*
X15164643Y-19294881D01*
X15155119Y-19313929D01*
X15145595Y-19323452D01*
X15126548Y-19332976D01*
X15097976Y-19332976D01*
X15278928Y-19332976D02*
X15259881Y-19323452D01*
X15250357Y-19304405D01*
X15250357Y-19132976D01*
X15431309Y-19323452D02*
X15412262Y-19332976D01*
X15374167Y-19332976D01*
X15355119Y-19323452D01*
X15345595Y-19304405D01*
X15345595Y-19228214D01*
X15355119Y-19209167D01*
X15374167Y-19199643D01*
X15412262Y-19199643D01*
X15431309Y-19209167D01*
X15440833Y-19228214D01*
X15440833Y-19247262D01*
X15345595Y-19266310D01*
X15517024Y-19323452D02*
X15536071Y-19332976D01*
X15574167Y-19332976D01*
X15593214Y-19323452D01*
X15602738Y-19304405D01*
X15602738Y-19294881D01*
X15593214Y-19275833D01*
X15574167Y-19266310D01*
X15545595Y-19266310D01*
X15526548Y-19256786D01*
X15517024Y-19237738D01*
X15517024Y-19228214D01*
X15526548Y-19209167D01*
X15545595Y-19199643D01*
X15574167Y-19199643D01*
X15593214Y-19209167D01*
X15669405Y-19409167D02*
X15678928Y-19399643D01*
X15697976Y-19371071D01*
X15707500Y-19352024D01*
X15717024Y-19323452D01*
X15726548Y-19275833D01*
X15726548Y-19237738D01*
X15717024Y-19190119D01*
X15707500Y-19161548D01*
X15697976Y-19142500D01*
X15678928Y-19113929D01*
X15669405Y-19104405D01*
D13*
X10897500Y-19506500D02*
G75*
G03*
X10897500Y-19506500I-35000J0D01*
G01*
D11*
X11193214Y-19396976D02*
X11212262Y-19396976D01*
X11231309Y-19406500D01*
X11240833Y-19416024D01*
X11250357Y-19435071D01*
X11259881Y-19473167D01*
X11259881Y-19520786D01*
X11250357Y-19558881D01*
X11240833Y-19577929D01*
X11231309Y-19587452D01*
X11212262Y-19596976D01*
X11193214Y-19596976D01*
X11174167Y-19587452D01*
X11164643Y-19577929D01*
X11155119Y-19558881D01*
X11145595Y-19520786D01*
X11145595Y-19473167D01*
X11155119Y-19435071D01*
X11164643Y-19416024D01*
X11174167Y-19406500D01*
X11193214Y-19396976D01*
X11345595Y-19577929D02*
X11355119Y-19587452D01*
X11345595Y-19596976D01*
X11336071Y-19587452D01*
X11345595Y-19577929D01*
X11345595Y-19596976D01*
X11421786Y-19396976D02*
X11555119Y-19396976D01*
X11469405Y-19596976D01*
X11669405Y-19396976D02*
X11688452Y-19396976D01*
X11707500Y-19406500D01*
X11717024Y-19416024D01*
X11726548Y-19435071D01*
X11736071Y-19473167D01*
X11736071Y-19520786D01*
X11726548Y-19558881D01*
X11717024Y-19577929D01*
X11707500Y-19587452D01*
X11688452Y-19596976D01*
X11669405Y-19596976D01*
X11650357Y-19587452D01*
X11640833Y-19577929D01*
X11631309Y-19558881D01*
X11621786Y-19520786D01*
X11621786Y-19473167D01*
X11631309Y-19435071D01*
X11640833Y-19416024D01*
X11650357Y-19406500D01*
X11669405Y-19396976D01*
X11859881Y-19396976D02*
X11878928Y-19396976D01*
X11897976Y-19406500D01*
X11907500Y-19416024D01*
X11917024Y-19435071D01*
X11926548Y-19473167D01*
X11926548Y-19520786D01*
X11917024Y-19558881D01*
X11907500Y-19577929D01*
X11897976Y-19587452D01*
X11878928Y-19596976D01*
X11859881Y-19596976D01*
X11840833Y-19587452D01*
X11831309Y-19577929D01*
X11821786Y-19558881D01*
X11812262Y-19520786D01*
X11812262Y-19473167D01*
X11821786Y-19435071D01*
X11831309Y-19416024D01*
X11840833Y-19406500D01*
X11859881Y-19396976D01*
X12012262Y-19596976D02*
X12012262Y-19463643D01*
X12012262Y-19482690D02*
X12021786Y-19473167D01*
X12040833Y-19463643D01*
X12069405Y-19463643D01*
X12088452Y-19473167D01*
X12097976Y-19492214D01*
X12097976Y-19596976D01*
X12097976Y-19492214D02*
X12107500Y-19473167D01*
X12126548Y-19463643D01*
X12155119Y-19463643D01*
X12174167Y-19473167D01*
X12183690Y-19492214D01*
X12183690Y-19596976D01*
X12278928Y-19596976D02*
X12278928Y-19463643D01*
X12278928Y-19482690D02*
X12288452Y-19473167D01*
X12307500Y-19463643D01*
X12336071Y-19463643D01*
X12355119Y-19473167D01*
X12364643Y-19492214D01*
X12364643Y-19596976D01*
X12364643Y-19492214D02*
X12374167Y-19473167D01*
X12393214Y-19463643D01*
X12421786Y-19463643D01*
X12440833Y-19473167D01*
X12450357Y-19492214D01*
X12450357Y-19596976D01*
X12840833Y-19387452D02*
X12669405Y-19644595D01*
X13097976Y-19396976D02*
X13117024Y-19396976D01*
X13136071Y-19406500D01*
X13145595Y-19416024D01*
X13155119Y-19435071D01*
X13164643Y-19473167D01*
X13164643Y-19520786D01*
X13155119Y-19558881D01*
X13145595Y-19577929D01*
X13136071Y-19587452D01*
X13117024Y-19596976D01*
X13097976Y-19596976D01*
X13078928Y-19587452D01*
X13069405Y-19577929D01*
X13059881Y-19558881D01*
X13050357Y-19520786D01*
X13050357Y-19473167D01*
X13059881Y-19435071D01*
X13069405Y-19416024D01*
X13078928Y-19406500D01*
X13097976Y-19396976D01*
X13250357Y-19577929D02*
X13259881Y-19587452D01*
X13250357Y-19596976D01*
X13240833Y-19587452D01*
X13250357Y-19577929D01*
X13250357Y-19596976D01*
X13383690Y-19396976D02*
X13402738Y-19396976D01*
X13421786Y-19406500D01*
X13431309Y-19416024D01*
X13440833Y-19435071D01*
X13450357Y-19473167D01*
X13450357Y-19520786D01*
X13440833Y-19558881D01*
X13431309Y-19577929D01*
X13421786Y-19587452D01*
X13402738Y-19596976D01*
X13383690Y-19596976D01*
X13364643Y-19587452D01*
X13355119Y-19577929D01*
X13345595Y-19558881D01*
X13336071Y-19520786D01*
X13336071Y-19473167D01*
X13345595Y-19435071D01*
X13355119Y-19416024D01*
X13364643Y-19406500D01*
X13383690Y-19396976D01*
X13526548Y-19416024D02*
X13536071Y-19406500D01*
X13555119Y-19396976D01*
X13602738Y-19396976D01*
X13621786Y-19406500D01*
X13631309Y-19416024D01*
X13640833Y-19435071D01*
X13640833Y-19454119D01*
X13631309Y-19482690D01*
X13517024Y-19596976D01*
X13640833Y-19596976D01*
X13707500Y-19396976D02*
X13840833Y-19396976D01*
X13755119Y-19596976D01*
X14002738Y-19396976D02*
X13964643Y-19396976D01*
X13945595Y-19406500D01*
X13936071Y-19416024D01*
X13917024Y-19444595D01*
X13907500Y-19482690D01*
X13907500Y-19558881D01*
X13917024Y-19577929D01*
X13926548Y-19587452D01*
X13945595Y-19596976D01*
X13983690Y-19596976D01*
X14002738Y-19587452D01*
X14012262Y-19577929D01*
X14021786Y-19558881D01*
X14021786Y-19511262D01*
X14012262Y-19492214D01*
X14002738Y-19482690D01*
X13983690Y-19473167D01*
X13945595Y-19473167D01*
X13926548Y-19482690D01*
X13917024Y-19492214D01*
X13907500Y-19511262D01*
X14097976Y-19396976D02*
X14097976Y-19435071D01*
X14174167Y-19396976D02*
X14174167Y-19435071D01*
X14469405Y-19673167D02*
X14459881Y-19663643D01*
X14440833Y-19635071D01*
X14431309Y-19616024D01*
X14421786Y-19587452D01*
X14412262Y-19539833D01*
X14412262Y-19501738D01*
X14421786Y-19454119D01*
X14431309Y-19425548D01*
X14440833Y-19406500D01*
X14459881Y-19377929D01*
X14469405Y-19368405D01*
X14631309Y-19463643D02*
X14631309Y-19596976D01*
X14583690Y-19387452D02*
X14536071Y-19530310D01*
X14659881Y-19530310D01*
X14726548Y-19416024D02*
X14736071Y-19406500D01*
X14755119Y-19396976D01*
X14802738Y-19396976D01*
X14821786Y-19406500D01*
X14831309Y-19416024D01*
X14840833Y-19435071D01*
X14840833Y-19454119D01*
X14831309Y-19482690D01*
X14717024Y-19596976D01*
X14840833Y-19596976D01*
X15078928Y-19596976D02*
X15078928Y-19396976D01*
X15164643Y-19596976D02*
X15164643Y-19492214D01*
X15155119Y-19473167D01*
X15136071Y-19463643D01*
X15107500Y-19463643D01*
X15088452Y-19473167D01*
X15078928Y-19482690D01*
X15288452Y-19596976D02*
X15269405Y-19587452D01*
X15259881Y-19577929D01*
X15250357Y-19558881D01*
X15250357Y-19501738D01*
X15259881Y-19482690D01*
X15269405Y-19473167D01*
X15288452Y-19463643D01*
X15317024Y-19463643D01*
X15336071Y-19473167D01*
X15345595Y-19482690D01*
X15355119Y-19501738D01*
X15355119Y-19558881D01*
X15345595Y-19577929D01*
X15336071Y-19587452D01*
X15317024Y-19596976D01*
X15288452Y-19596976D01*
X15469405Y-19596976D02*
X15450357Y-19587452D01*
X15440833Y-19568405D01*
X15440833Y-19396976D01*
X15621786Y-19587452D02*
X15602738Y-19596976D01*
X15564643Y-19596976D01*
X15545595Y-19587452D01*
X15536071Y-19568405D01*
X15536071Y-19492214D01*
X15545595Y-19473167D01*
X15564643Y-19463643D01*
X15602738Y-19463643D01*
X15621786Y-19473167D01*
X15631309Y-19492214D01*
X15631309Y-19511262D01*
X15536071Y-19530310D01*
X15707500Y-19587452D02*
X15726548Y-19596976D01*
X15764643Y-19596976D01*
X15783690Y-19587452D01*
X15793214Y-19568405D01*
X15793214Y-19558881D01*
X15783690Y-19539833D01*
X15764643Y-19530310D01*
X15736071Y-19530310D01*
X15717024Y-19520786D01*
X15707500Y-19501738D01*
X15707500Y-19492214D01*
X15717024Y-19473167D01*
X15736071Y-19463643D01*
X15764643Y-19463643D01*
X15783690Y-19473167D01*
X15859881Y-19673167D02*
X15869405Y-19663643D01*
X15888452Y-19635071D01*
X15897976Y-19616024D01*
X15907500Y-19587452D01*
X15917024Y-19539833D01*
X15917024Y-19501738D01*
X15907500Y-19454119D01*
X15897976Y-19425548D01*
X15888452Y-19406500D01*
X15869405Y-19377929D01*
X15859881Y-19368405D01*
D14*
X10857500Y-19730500D02*
X10857500Y-19810500D01*
X10817500Y-19770500D02*
X10897500Y-19770500D01*
D11*
X11193214Y-19660976D02*
X11212262Y-19660976D01*
X11231309Y-19670500D01*
X11240833Y-19680024D01*
X11250357Y-19699071D01*
X11259881Y-19737167D01*
X11259881Y-19784786D01*
X11250357Y-19822881D01*
X11240833Y-19841929D01*
X11231309Y-19851452D01*
X11212262Y-19860976D01*
X11193214Y-19860976D01*
X11174167Y-19851452D01*
X11164643Y-19841929D01*
X11155119Y-19822881D01*
X11145595Y-19784786D01*
X11145595Y-19737167D01*
X11155119Y-19699071D01*
X11164643Y-19680024D01*
X11174167Y-19670500D01*
X11193214Y-19660976D01*
X11345595Y-19841929D02*
X11355119Y-19851452D01*
X11345595Y-19860976D01*
X11336071Y-19851452D01*
X11345595Y-19841929D01*
X11345595Y-19860976D01*
X11469405Y-19746690D02*
X11450357Y-19737167D01*
X11440833Y-19727643D01*
X11431309Y-19708595D01*
X11431309Y-19699071D01*
X11440833Y-19680024D01*
X11450357Y-19670500D01*
X11469405Y-19660976D01*
X11507500Y-19660976D01*
X11526548Y-19670500D01*
X11536071Y-19680024D01*
X11545595Y-19699071D01*
X11545595Y-19708595D01*
X11536071Y-19727643D01*
X11526548Y-19737167D01*
X11507500Y-19746690D01*
X11469405Y-19746690D01*
X11450357Y-19756214D01*
X11440833Y-19765738D01*
X11431309Y-19784786D01*
X11431309Y-19822881D01*
X11440833Y-19841929D01*
X11450357Y-19851452D01*
X11469405Y-19860976D01*
X11507500Y-19860976D01*
X11526548Y-19851452D01*
X11536071Y-19841929D01*
X11545595Y-19822881D01*
X11545595Y-19784786D01*
X11536071Y-19765738D01*
X11526548Y-19756214D01*
X11507500Y-19746690D01*
X11669405Y-19660976D02*
X11688452Y-19660976D01*
X11707500Y-19670500D01*
X11717024Y-19680024D01*
X11726548Y-19699071D01*
X11736071Y-19737167D01*
X11736071Y-19784786D01*
X11726548Y-19822881D01*
X11717024Y-19841929D01*
X11707500Y-19851452D01*
X11688452Y-19860976D01*
X11669405Y-19860976D01*
X11650357Y-19851452D01*
X11640833Y-19841929D01*
X11631309Y-19822881D01*
X11621786Y-19784786D01*
X11621786Y-19737167D01*
X11631309Y-19699071D01*
X11640833Y-19680024D01*
X11650357Y-19670500D01*
X11669405Y-19660976D01*
X11859881Y-19660976D02*
X11878928Y-19660976D01*
X11897976Y-19670500D01*
X11907500Y-19680024D01*
X11917024Y-19699071D01*
X11926548Y-19737167D01*
X11926548Y-19784786D01*
X11917024Y-19822881D01*
X11907500Y-19841929D01*
X11897976Y-19851452D01*
X11878928Y-19860976D01*
X11859881Y-19860976D01*
X11840833Y-19851452D01*
X11831309Y-19841929D01*
X11821786Y-19822881D01*
X11812262Y-19784786D01*
X11812262Y-19737167D01*
X11821786Y-19699071D01*
X11831309Y-19680024D01*
X11840833Y-19670500D01*
X11859881Y-19660976D01*
X12012262Y-19860976D02*
X12012262Y-19727643D01*
X12012262Y-19746690D02*
X12021786Y-19737167D01*
X12040833Y-19727643D01*
X12069405Y-19727643D01*
X12088452Y-19737167D01*
X12097976Y-19756214D01*
X12097976Y-19860976D01*
X12097976Y-19756214D02*
X12107500Y-19737167D01*
X12126548Y-19727643D01*
X12155119Y-19727643D01*
X12174167Y-19737167D01*
X12183690Y-19756214D01*
X12183690Y-19860976D01*
X12278928Y-19860976D02*
X12278928Y-19727643D01*
X12278928Y-19746690D02*
X12288452Y-19737167D01*
X12307500Y-19727643D01*
X12336071Y-19727643D01*
X12355119Y-19737167D01*
X12364643Y-19756214D01*
X12364643Y-19860976D01*
X12364643Y-19756214D02*
X12374167Y-19737167D01*
X12393214Y-19727643D01*
X12421786Y-19727643D01*
X12440833Y-19737167D01*
X12450357Y-19756214D01*
X12450357Y-19860976D01*
X12840833Y-19651452D02*
X12669405Y-19908595D01*
X13097976Y-19660976D02*
X13117024Y-19660976D01*
X13136071Y-19670500D01*
X13145595Y-19680024D01*
X13155119Y-19699071D01*
X13164643Y-19737167D01*
X13164643Y-19784786D01*
X13155119Y-19822881D01*
X13145595Y-19841929D01*
X13136071Y-19851452D01*
X13117024Y-19860976D01*
X13097976Y-19860976D01*
X13078928Y-19851452D01*
X13069405Y-19841929D01*
X13059881Y-19822881D01*
X13050357Y-19784786D01*
X13050357Y-19737167D01*
X13059881Y-19699071D01*
X13069405Y-19680024D01*
X13078928Y-19670500D01*
X13097976Y-19660976D01*
X13250357Y-19841929D02*
X13259881Y-19851452D01*
X13250357Y-19860976D01*
X13240833Y-19851452D01*
X13250357Y-19841929D01*
X13250357Y-19860976D01*
X13383690Y-19660976D02*
X13402738Y-19660976D01*
X13421786Y-19670500D01*
X13431309Y-19680024D01*
X13440833Y-19699071D01*
X13450357Y-19737167D01*
X13450357Y-19784786D01*
X13440833Y-19822881D01*
X13431309Y-19841929D01*
X13421786Y-19851452D01*
X13402738Y-19860976D01*
X13383690Y-19860976D01*
X13364643Y-19851452D01*
X13355119Y-19841929D01*
X13345595Y-19822881D01*
X13336071Y-19784786D01*
X13336071Y-19737167D01*
X13345595Y-19699071D01*
X13355119Y-19680024D01*
X13364643Y-19670500D01*
X13383690Y-19660976D01*
X13517024Y-19660976D02*
X13640833Y-19660976D01*
X13574167Y-19737167D01*
X13602738Y-19737167D01*
X13621786Y-19746690D01*
X13631309Y-19756214D01*
X13640833Y-19775262D01*
X13640833Y-19822881D01*
X13631309Y-19841929D01*
X13621786Y-19851452D01*
X13602738Y-19860976D01*
X13545595Y-19860976D01*
X13526548Y-19851452D01*
X13517024Y-19841929D01*
X13831309Y-19860976D02*
X13717024Y-19860976D01*
X13774167Y-19860976D02*
X13774167Y-19660976D01*
X13755119Y-19689548D01*
X13736071Y-19708595D01*
X13717024Y-19718119D01*
X14012262Y-19660976D02*
X13917024Y-19660976D01*
X13907500Y-19756214D01*
X13917024Y-19746690D01*
X13936071Y-19737167D01*
X13983690Y-19737167D01*
X14002738Y-19746690D01*
X14012262Y-19756214D01*
X14021786Y-19775262D01*
X14021786Y-19822881D01*
X14012262Y-19841929D01*
X14002738Y-19851452D01*
X13983690Y-19860976D01*
X13936071Y-19860976D01*
X13917024Y-19851452D01*
X13907500Y-19841929D01*
X14097976Y-19660976D02*
X14097976Y-19699071D01*
X14174167Y-19660976D02*
X14174167Y-19699071D01*
X14469405Y-19937167D02*
X14459881Y-19927643D01*
X14440833Y-19899071D01*
X14431309Y-19880024D01*
X14421786Y-19851452D01*
X14412262Y-19803833D01*
X14412262Y-19765738D01*
X14421786Y-19718119D01*
X14431309Y-19689548D01*
X14440833Y-19670500D01*
X14459881Y-19641929D01*
X14469405Y-19632405D01*
X14526548Y-19660976D02*
X14659881Y-19660976D01*
X14574167Y-19860976D01*
X14726548Y-19680024D02*
X14736071Y-19670500D01*
X14755119Y-19660976D01*
X14802738Y-19660976D01*
X14821786Y-19670500D01*
X14831309Y-19680024D01*
X14840833Y-19699071D01*
X14840833Y-19718119D01*
X14831309Y-19746690D01*
X14717024Y-19860976D01*
X14840833Y-19860976D01*
X15078928Y-19860976D02*
X15078928Y-19660976D01*
X15164643Y-19860976D02*
X15164643Y-19756214D01*
X15155119Y-19737167D01*
X15136071Y-19727643D01*
X15107500Y-19727643D01*
X15088452Y-19737167D01*
X15078928Y-19746690D01*
X15288452Y-19860976D02*
X15269405Y-19851452D01*
X15259881Y-19841929D01*
X15250357Y-19822881D01*
X15250357Y-19765738D01*
X15259881Y-19746690D01*
X15269405Y-19737167D01*
X15288452Y-19727643D01*
X15317024Y-19727643D01*
X15336071Y-19737167D01*
X15345595Y-19746690D01*
X15355119Y-19765738D01*
X15355119Y-19822881D01*
X15345595Y-19841929D01*
X15336071Y-19851452D01*
X15317024Y-19860976D01*
X15288452Y-19860976D01*
X15469405Y-19860976D02*
X15450357Y-19851452D01*
X15440833Y-19832405D01*
X15440833Y-19660976D01*
X15621786Y-19851452D02*
X15602738Y-19860976D01*
X15564643Y-19860976D01*
X15545595Y-19851452D01*
X15536071Y-19832405D01*
X15536071Y-19756214D01*
X15545595Y-19737167D01*
X15564643Y-19727643D01*
X15602738Y-19727643D01*
X15621786Y-19737167D01*
X15631309Y-19756214D01*
X15631309Y-19775262D01*
X15536071Y-19794310D01*
X15707500Y-19851452D02*
X15726548Y-19860976D01*
X15764643Y-19860976D01*
X15783690Y-19851452D01*
X15793214Y-19832405D01*
X15793214Y-19822881D01*
X15783690Y-19803833D01*
X15764643Y-19794310D01*
X15736071Y-19794310D01*
X15717024Y-19784786D01*
X15707500Y-19765738D01*
X15707500Y-19756214D01*
X15717024Y-19737167D01*
X15736071Y-19727643D01*
X15764643Y-19727643D01*
X15783690Y-19737167D01*
X15859881Y-19937167D02*
X15869405Y-19927643D01*
X15888452Y-19899071D01*
X15897976Y-19880024D01*
X15907500Y-19851452D01*
X15917024Y-19803833D01*
X15917024Y-19765738D01*
X15907500Y-19718119D01*
X15897976Y-19689548D01*
X15888452Y-19670500D01*
X15869405Y-19641929D01*
X15859881Y-19632405D01*
D15*
X10884320Y-20066320D02*
X10884320Y-20002680D01*
X10820680Y-20002680D01*
X10820680Y-20066320D01*
X10884320Y-20066320D01*
D11*
X11193214Y-19924976D02*
X11212262Y-19924976D01*
X11231309Y-19934500D01*
X11240833Y-19944024D01*
X11250357Y-19963071D01*
X11259881Y-20001167D01*
X11259881Y-20048786D01*
X11250357Y-20086881D01*
X11240833Y-20105929D01*
X11231309Y-20115452D01*
X11212262Y-20124976D01*
X11193214Y-20124976D01*
X11174167Y-20115452D01*
X11164643Y-20105929D01*
X11155119Y-20086881D01*
X11145595Y-20048786D01*
X11145595Y-20001167D01*
X11155119Y-19963071D01*
X11164643Y-19944024D01*
X11174167Y-19934500D01*
X11193214Y-19924976D01*
X11345595Y-20105929D02*
X11355119Y-20115452D01*
X11345595Y-20124976D01*
X11336071Y-20115452D01*
X11345595Y-20105929D01*
X11345595Y-20124976D01*
X11450357Y-20124976D02*
X11488452Y-20124976D01*
X11507500Y-20115452D01*
X11517024Y-20105929D01*
X11536071Y-20077357D01*
X11545595Y-20039262D01*
X11545595Y-19963071D01*
X11536071Y-19944024D01*
X11526548Y-19934500D01*
X11507500Y-19924976D01*
X11469405Y-19924976D01*
X11450357Y-19934500D01*
X11440833Y-19944024D01*
X11431309Y-19963071D01*
X11431309Y-20010690D01*
X11440833Y-20029738D01*
X11450357Y-20039262D01*
X11469405Y-20048786D01*
X11507500Y-20048786D01*
X11526548Y-20039262D01*
X11536071Y-20029738D01*
X11545595Y-20010690D01*
X11669405Y-19924976D02*
X11688452Y-19924976D01*
X11707500Y-19934500D01*
X11717024Y-19944024D01*
X11726548Y-19963071D01*
X11736071Y-20001167D01*
X11736071Y-20048786D01*
X11726548Y-20086881D01*
X11717024Y-20105929D01*
X11707500Y-20115452D01*
X11688452Y-20124976D01*
X11669405Y-20124976D01*
X11650357Y-20115452D01*
X11640833Y-20105929D01*
X11631309Y-20086881D01*
X11621786Y-20048786D01*
X11621786Y-20001167D01*
X11631309Y-19963071D01*
X11640833Y-19944024D01*
X11650357Y-19934500D01*
X11669405Y-19924976D01*
X11859881Y-19924976D02*
X11878928Y-19924976D01*
X11897976Y-19934500D01*
X11907500Y-19944024D01*
X11917024Y-19963071D01*
X11926548Y-20001167D01*
X11926548Y-20048786D01*
X11917024Y-20086881D01*
X11907500Y-20105929D01*
X11897976Y-20115452D01*
X11878928Y-20124976D01*
X11859881Y-20124976D01*
X11840833Y-20115452D01*
X11831309Y-20105929D01*
X11821786Y-20086881D01*
X11812262Y-20048786D01*
X11812262Y-20001167D01*
X11821786Y-19963071D01*
X11831309Y-19944024D01*
X11840833Y-19934500D01*
X11859881Y-19924976D01*
X12012262Y-20124976D02*
X12012262Y-19991643D01*
X12012262Y-20010690D02*
X12021786Y-20001167D01*
X12040833Y-19991643D01*
X12069405Y-19991643D01*
X12088452Y-20001167D01*
X12097976Y-20020214D01*
X12097976Y-20124976D01*
X12097976Y-20020214D02*
X12107500Y-20001167D01*
X12126548Y-19991643D01*
X12155119Y-19991643D01*
X12174167Y-20001167D01*
X12183690Y-20020214D01*
X12183690Y-20124976D01*
X12278928Y-20124976D02*
X12278928Y-19991643D01*
X12278928Y-20010690D02*
X12288452Y-20001167D01*
X12307500Y-19991643D01*
X12336071Y-19991643D01*
X12355119Y-20001167D01*
X12364643Y-20020214D01*
X12364643Y-20124976D01*
X12364643Y-20020214D02*
X12374167Y-20001167D01*
X12393214Y-19991643D01*
X12421786Y-19991643D01*
X12440833Y-20001167D01*
X12450357Y-20020214D01*
X12450357Y-20124976D01*
X12840833Y-19915452D02*
X12669405Y-20172595D01*
X13097976Y-19924976D02*
X13117024Y-19924976D01*
X13136071Y-19934500D01*
X13145595Y-19944024D01*
X13155119Y-19963071D01*
X13164643Y-20001167D01*
X13164643Y-20048786D01*
X13155119Y-20086881D01*
X13145595Y-20105929D01*
X13136071Y-20115452D01*
X13117024Y-20124976D01*
X13097976Y-20124976D01*
X13078928Y-20115452D01*
X13069405Y-20105929D01*
X13059881Y-20086881D01*
X13050357Y-20048786D01*
X13050357Y-20001167D01*
X13059881Y-19963071D01*
X13069405Y-19944024D01*
X13078928Y-19934500D01*
X13097976Y-19924976D01*
X13250357Y-20105929D02*
X13259881Y-20115452D01*
X13250357Y-20124976D01*
X13240833Y-20115452D01*
X13250357Y-20105929D01*
X13250357Y-20124976D01*
X13383690Y-19924976D02*
X13402738Y-19924976D01*
X13421786Y-19934500D01*
X13431309Y-19944024D01*
X13440833Y-19963071D01*
X13450357Y-20001167D01*
X13450357Y-20048786D01*
X13440833Y-20086881D01*
X13431309Y-20105929D01*
X13421786Y-20115452D01*
X13402738Y-20124976D01*
X13383690Y-20124976D01*
X13364643Y-20115452D01*
X13355119Y-20105929D01*
X13345595Y-20086881D01*
X13336071Y-20048786D01*
X13336071Y-20001167D01*
X13345595Y-19963071D01*
X13355119Y-19944024D01*
X13364643Y-19934500D01*
X13383690Y-19924976D01*
X13517024Y-19924976D02*
X13640833Y-19924976D01*
X13574167Y-20001167D01*
X13602738Y-20001167D01*
X13621786Y-20010690D01*
X13631309Y-20020214D01*
X13640833Y-20039262D01*
X13640833Y-20086881D01*
X13631309Y-20105929D01*
X13621786Y-20115452D01*
X13602738Y-20124976D01*
X13545595Y-20124976D01*
X13526548Y-20115452D01*
X13517024Y-20105929D01*
X13821786Y-19924976D02*
X13726548Y-19924976D01*
X13717024Y-20020214D01*
X13726548Y-20010690D01*
X13745595Y-20001167D01*
X13793214Y-20001167D01*
X13812262Y-20010690D01*
X13821786Y-20020214D01*
X13831309Y-20039262D01*
X13831309Y-20086881D01*
X13821786Y-20105929D01*
X13812262Y-20115452D01*
X13793214Y-20124976D01*
X13745595Y-20124976D01*
X13726548Y-20115452D01*
X13717024Y-20105929D01*
X14002738Y-19991643D02*
X14002738Y-20124976D01*
X13955119Y-19915452D02*
X13907500Y-20058310D01*
X14031309Y-20058310D01*
X14097976Y-19924976D02*
X14097976Y-19963071D01*
X14174167Y-19924976D02*
X14174167Y-19963071D01*
X14469405Y-20201167D02*
X14459881Y-20191643D01*
X14440833Y-20163071D01*
X14431309Y-20144024D01*
X14421786Y-20115452D01*
X14412262Y-20067833D01*
X14412262Y-20029738D01*
X14421786Y-19982119D01*
X14431309Y-19953548D01*
X14440833Y-19934500D01*
X14459881Y-19905929D01*
X14469405Y-19896405D01*
X14536071Y-19944024D02*
X14545595Y-19934500D01*
X14564643Y-19924976D01*
X14612262Y-19924976D01*
X14631309Y-19934500D01*
X14640833Y-19944024D01*
X14650357Y-19963071D01*
X14650357Y-19982119D01*
X14640833Y-20010690D01*
X14526548Y-20124976D01*
X14650357Y-20124976D01*
X14888452Y-20124976D02*
X14888452Y-19924976D01*
X14974167Y-20124976D02*
X14974167Y-20020214D01*
X14964643Y-20001167D01*
X14945595Y-19991643D01*
X14917024Y-19991643D01*
X14897976Y-20001167D01*
X14888452Y-20010690D01*
X15097976Y-20124976D02*
X15078928Y-20115452D01*
X15069405Y-20105929D01*
X15059881Y-20086881D01*
X15059881Y-20029738D01*
X15069405Y-20010690D01*
X15078928Y-20001167D01*
X15097976Y-19991643D01*
X15126548Y-19991643D01*
X15145595Y-20001167D01*
X15155119Y-20010690D01*
X15164643Y-20029738D01*
X15164643Y-20086881D01*
X15155119Y-20105929D01*
X15145595Y-20115452D01*
X15126548Y-20124976D01*
X15097976Y-20124976D01*
X15278928Y-20124976D02*
X15259881Y-20115452D01*
X15250357Y-20096405D01*
X15250357Y-19924976D01*
X15431309Y-20115452D02*
X15412262Y-20124976D01*
X15374167Y-20124976D01*
X15355119Y-20115452D01*
X15345595Y-20096405D01*
X15345595Y-20020214D01*
X15355119Y-20001167D01*
X15374167Y-19991643D01*
X15412262Y-19991643D01*
X15431309Y-20001167D01*
X15440833Y-20020214D01*
X15440833Y-20039262D01*
X15345595Y-20058310D01*
X15517024Y-20115452D02*
X15536071Y-20124976D01*
X15574167Y-20124976D01*
X15593214Y-20115452D01*
X15602738Y-20096405D01*
X15602738Y-20086881D01*
X15593214Y-20067833D01*
X15574167Y-20058310D01*
X15545595Y-20058310D01*
X15526548Y-20048786D01*
X15517024Y-20029738D01*
X15517024Y-20020214D01*
X15526548Y-20001167D01*
X15545595Y-19991643D01*
X15574167Y-19991643D01*
X15593214Y-20001167D01*
X15669405Y-20201167D02*
X15678928Y-20191643D01*
X15697976Y-20163071D01*
X15707500Y-20144024D01*
X15717024Y-20115452D01*
X15726548Y-20067833D01*
X15726548Y-20029738D01*
X15717024Y-19982119D01*
X15707500Y-19953548D01*
X15697976Y-19934500D01*
X15678928Y-19905929D01*
X15669405Y-19896405D01*
D16*
X10847500Y-20348500D02*
X10897500Y-20298500D01*
X10847500Y-20248500D01*
X10797500Y-20298500D01*
X10847500Y-20348500D01*
D11*
X11259881Y-20388976D02*
X11145595Y-20388976D01*
X11202738Y-20388976D02*
X11202738Y-20188976D01*
X11183690Y-20217548D01*
X11164643Y-20236595D01*
X11145595Y-20246119D01*
X11345595Y-20369929D02*
X11355119Y-20379452D01*
X11345595Y-20388976D01*
X11336071Y-20379452D01*
X11345595Y-20369929D01*
X11345595Y-20388976D01*
X11478928Y-20188976D02*
X11497976Y-20188976D01*
X11517024Y-20198500D01*
X11526548Y-20208024D01*
X11536071Y-20227071D01*
X11545595Y-20265167D01*
X11545595Y-20312786D01*
X11536071Y-20350881D01*
X11526548Y-20369929D01*
X11517024Y-20379452D01*
X11497976Y-20388976D01*
X11478928Y-20388976D01*
X11459881Y-20379452D01*
X11450357Y-20369929D01*
X11440833Y-20350881D01*
X11431309Y-20312786D01*
X11431309Y-20265167D01*
X11440833Y-20227071D01*
X11450357Y-20208024D01*
X11459881Y-20198500D01*
X11478928Y-20188976D01*
X11669405Y-20188976D02*
X11688452Y-20188976D01*
X11707500Y-20198500D01*
X11717024Y-20208024D01*
X11726548Y-20227071D01*
X11736071Y-20265167D01*
X11736071Y-20312786D01*
X11726548Y-20350881D01*
X11717024Y-20369929D01*
X11707500Y-20379452D01*
X11688452Y-20388976D01*
X11669405Y-20388976D01*
X11650357Y-20379452D01*
X11640833Y-20369929D01*
X11631309Y-20350881D01*
X11621786Y-20312786D01*
X11621786Y-20265167D01*
X11631309Y-20227071D01*
X11640833Y-20208024D01*
X11650357Y-20198500D01*
X11669405Y-20188976D01*
X11859881Y-20188976D02*
X11878928Y-20188976D01*
X11897976Y-20198500D01*
X11907500Y-20208024D01*
X11917024Y-20227071D01*
X11926548Y-20265167D01*
X11926548Y-20312786D01*
X11917024Y-20350881D01*
X11907500Y-20369929D01*
X11897976Y-20379452D01*
X11878928Y-20388976D01*
X11859881Y-20388976D01*
X11840833Y-20379452D01*
X11831309Y-20369929D01*
X11821786Y-20350881D01*
X11812262Y-20312786D01*
X11812262Y-20265167D01*
X11821786Y-20227071D01*
X11831309Y-20208024D01*
X11840833Y-20198500D01*
X11859881Y-20188976D01*
X12012262Y-20388976D02*
X12012262Y-20255643D01*
X12012262Y-20274690D02*
X12021786Y-20265167D01*
X12040833Y-20255643D01*
X12069405Y-20255643D01*
X12088452Y-20265167D01*
X12097976Y-20284214D01*
X12097976Y-20388976D01*
X12097976Y-20284214D02*
X12107500Y-20265167D01*
X12126548Y-20255643D01*
X12155119Y-20255643D01*
X12174167Y-20265167D01*
X12183690Y-20284214D01*
X12183690Y-20388976D01*
X12278928Y-20388976D02*
X12278928Y-20255643D01*
X12278928Y-20274690D02*
X12288452Y-20265167D01*
X12307500Y-20255643D01*
X12336071Y-20255643D01*
X12355119Y-20265167D01*
X12364643Y-20284214D01*
X12364643Y-20388976D01*
X12364643Y-20284214D02*
X12374167Y-20265167D01*
X12393214Y-20255643D01*
X12421786Y-20255643D01*
X12440833Y-20265167D01*
X12450357Y-20284214D01*
X12450357Y-20388976D01*
X12840833Y-20179452D02*
X12669405Y-20436595D01*
X13097976Y-20188976D02*
X13117024Y-20188976D01*
X13136071Y-20198500D01*
X13145595Y-20208024D01*
X13155119Y-20227071D01*
X13164643Y-20265167D01*
X13164643Y-20312786D01*
X13155119Y-20350881D01*
X13145595Y-20369929D01*
X13136071Y-20379452D01*
X13117024Y-20388976D01*
X13097976Y-20388976D01*
X13078928Y-20379452D01*
X13069405Y-20369929D01*
X13059881Y-20350881D01*
X13050357Y-20312786D01*
X13050357Y-20265167D01*
X13059881Y-20227071D01*
X13069405Y-20208024D01*
X13078928Y-20198500D01*
X13097976Y-20188976D01*
X13250357Y-20369929D02*
X13259881Y-20379452D01*
X13250357Y-20388976D01*
X13240833Y-20379452D01*
X13250357Y-20369929D01*
X13250357Y-20388976D01*
X13383690Y-20188976D02*
X13402738Y-20188976D01*
X13421786Y-20198500D01*
X13431309Y-20208024D01*
X13440833Y-20227071D01*
X13450357Y-20265167D01*
X13450357Y-20312786D01*
X13440833Y-20350881D01*
X13431309Y-20369929D01*
X13421786Y-20379452D01*
X13402738Y-20388976D01*
X13383690Y-20388976D01*
X13364643Y-20379452D01*
X13355119Y-20369929D01*
X13345595Y-20350881D01*
X13336071Y-20312786D01*
X13336071Y-20265167D01*
X13345595Y-20227071D01*
X13355119Y-20208024D01*
X13364643Y-20198500D01*
X13383690Y-20188976D01*
X13517024Y-20188976D02*
X13640833Y-20188976D01*
X13574167Y-20265167D01*
X13602738Y-20265167D01*
X13621786Y-20274690D01*
X13631309Y-20284214D01*
X13640833Y-20303262D01*
X13640833Y-20350881D01*
X13631309Y-20369929D01*
X13621786Y-20379452D01*
X13602738Y-20388976D01*
X13545595Y-20388976D01*
X13526548Y-20379452D01*
X13517024Y-20369929D01*
X13736071Y-20388976D02*
X13774167Y-20388976D01*
X13793214Y-20379452D01*
X13802738Y-20369929D01*
X13821786Y-20341357D01*
X13831309Y-20303262D01*
X13831309Y-20227071D01*
X13821786Y-20208024D01*
X13812262Y-20198500D01*
X13793214Y-20188976D01*
X13755119Y-20188976D01*
X13736071Y-20198500D01*
X13726548Y-20208024D01*
X13717024Y-20227071D01*
X13717024Y-20274690D01*
X13726548Y-20293738D01*
X13736071Y-20303262D01*
X13755119Y-20312786D01*
X13793214Y-20312786D01*
X13812262Y-20303262D01*
X13821786Y-20293738D01*
X13831309Y-20274690D01*
X14002738Y-20255643D02*
X14002738Y-20388976D01*
X13955119Y-20179452D02*
X13907500Y-20322310D01*
X14031309Y-20322310D01*
X14097976Y-20188976D02*
X14097976Y-20227071D01*
X14174167Y-20188976D02*
X14174167Y-20227071D01*
X14469405Y-20465167D02*
X14459881Y-20455643D01*
X14440833Y-20427071D01*
X14431309Y-20408024D01*
X14421786Y-20379452D01*
X14412262Y-20331833D01*
X14412262Y-20293738D01*
X14421786Y-20246119D01*
X14431309Y-20217548D01*
X14440833Y-20198500D01*
X14459881Y-20169929D01*
X14469405Y-20160405D01*
X14650357Y-20388976D02*
X14536071Y-20388976D01*
X14593214Y-20388976D02*
X14593214Y-20188976D01*
X14574167Y-20217548D01*
X14555119Y-20236595D01*
X14536071Y-20246119D01*
X14821786Y-20188976D02*
X14783690Y-20188976D01*
X14764643Y-20198500D01*
X14755119Y-20208024D01*
X14736071Y-20236595D01*
X14726548Y-20274690D01*
X14726548Y-20350881D01*
X14736071Y-20369929D01*
X14745595Y-20379452D01*
X14764643Y-20388976D01*
X14802738Y-20388976D01*
X14821786Y-20379452D01*
X14831309Y-20369929D01*
X14840833Y-20350881D01*
X14840833Y-20303262D01*
X14831309Y-20284214D01*
X14821786Y-20274690D01*
X14802738Y-20265167D01*
X14764643Y-20265167D01*
X14745595Y-20274690D01*
X14736071Y-20284214D01*
X14726548Y-20303262D01*
X15078928Y-20388976D02*
X15078928Y-20188976D01*
X15164643Y-20388976D02*
X15164643Y-20284214D01*
X15155119Y-20265167D01*
X15136071Y-20255643D01*
X15107500Y-20255643D01*
X15088452Y-20265167D01*
X15078928Y-20274690D01*
X15288452Y-20388976D02*
X15269405Y-20379452D01*
X15259881Y-20369929D01*
X15250357Y-20350881D01*
X15250357Y-20293738D01*
X15259881Y-20274690D01*
X15269405Y-20265167D01*
X15288452Y-20255643D01*
X15317024Y-20255643D01*
X15336071Y-20265167D01*
X15345595Y-20274690D01*
X15355119Y-20293738D01*
X15355119Y-20350881D01*
X15345595Y-20369929D01*
X15336071Y-20379452D01*
X15317024Y-20388976D01*
X15288452Y-20388976D01*
X15469405Y-20388976D02*
X15450357Y-20379452D01*
X15440833Y-20360405D01*
X15440833Y-20188976D01*
X15621786Y-20379452D02*
X15602738Y-20388976D01*
X15564643Y-20388976D01*
X15545595Y-20379452D01*
X15536071Y-20360405D01*
X15536071Y-20284214D01*
X15545595Y-20265167D01*
X15564643Y-20255643D01*
X15602738Y-20255643D01*
X15621786Y-20265167D01*
X15631309Y-20284214D01*
X15631309Y-20303262D01*
X15536071Y-20322310D01*
X15707500Y-20379452D02*
X15726548Y-20388976D01*
X15764643Y-20388976D01*
X15783690Y-20379452D01*
X15793214Y-20360405D01*
X15793214Y-20350881D01*
X15783690Y-20331833D01*
X15764643Y-20322310D01*
X15736071Y-20322310D01*
X15717024Y-20312786D01*
X15707500Y-20293738D01*
X15707500Y-20284214D01*
X15717024Y-20265167D01*
X15736071Y-20255643D01*
X15764643Y-20255643D01*
X15783690Y-20265167D01*
X15859881Y-20465167D02*
X15869405Y-20455643D01*
X15888452Y-20427071D01*
X15897976Y-20408024D01*
X15907500Y-20379452D01*
X15917024Y-20331833D01*
X15917024Y-20293738D01*
X15907500Y-20246119D01*
X15897976Y-20217548D01*
X15888452Y-20198500D01*
X15869405Y-20169929D01*
X15859881Y-20160405D01*
D17*
X10787500Y-20507500D02*
X10897500Y-20617500D01*
X10897500Y-20507500D02*
X10787500Y-20617500D01*
X10897500Y-20562500D02*
G75*
G03*
X10897500Y-20562500I-55000J0D01*
G01*
D11*
X11259881Y-20652976D02*
X11145595Y-20652976D01*
X11202738Y-20652976D02*
X11202738Y-20452976D01*
X11183690Y-20481548D01*
X11164643Y-20500595D01*
X11145595Y-20510119D01*
X11345595Y-20633929D02*
X11355119Y-20643452D01*
X11345595Y-20652976D01*
X11336071Y-20643452D01*
X11345595Y-20633929D01*
X11345595Y-20652976D01*
X11545595Y-20652976D02*
X11431309Y-20652976D01*
X11488452Y-20652976D02*
X11488452Y-20452976D01*
X11469405Y-20481548D01*
X11450357Y-20500595D01*
X11431309Y-20510119D01*
X11669405Y-20452976D02*
X11688452Y-20452976D01*
X11707500Y-20462500D01*
X11717024Y-20472024D01*
X11726548Y-20491071D01*
X11736071Y-20529167D01*
X11736071Y-20576786D01*
X11726548Y-20614881D01*
X11717024Y-20633929D01*
X11707500Y-20643452D01*
X11688452Y-20652976D01*
X11669405Y-20652976D01*
X11650357Y-20643452D01*
X11640833Y-20633929D01*
X11631309Y-20614881D01*
X11621786Y-20576786D01*
X11621786Y-20529167D01*
X11631309Y-20491071D01*
X11640833Y-20472024D01*
X11650357Y-20462500D01*
X11669405Y-20452976D01*
X11859881Y-20452976D02*
X11878928Y-20452976D01*
X11897976Y-20462500D01*
X11907500Y-20472024D01*
X11917024Y-20491071D01*
X11926548Y-20529167D01*
X11926548Y-20576786D01*
X11917024Y-20614881D01*
X11907500Y-20633929D01*
X11897976Y-20643452D01*
X11878928Y-20652976D01*
X11859881Y-20652976D01*
X11840833Y-20643452D01*
X11831309Y-20633929D01*
X11821786Y-20614881D01*
X11812262Y-20576786D01*
X11812262Y-20529167D01*
X11821786Y-20491071D01*
X11831309Y-20472024D01*
X11840833Y-20462500D01*
X11859881Y-20452976D01*
X12012262Y-20652976D02*
X12012262Y-20519643D01*
X12012262Y-20538690D02*
X12021786Y-20529167D01*
X12040833Y-20519643D01*
X12069405Y-20519643D01*
X12088452Y-20529167D01*
X12097976Y-20548214D01*
X12097976Y-20652976D01*
X12097976Y-20548214D02*
X12107500Y-20529167D01*
X12126548Y-20519643D01*
X12155119Y-20519643D01*
X12174167Y-20529167D01*
X12183690Y-20548214D01*
X12183690Y-20652976D01*
X12278928Y-20652976D02*
X12278928Y-20519643D01*
X12278928Y-20538690D02*
X12288452Y-20529167D01*
X12307500Y-20519643D01*
X12336071Y-20519643D01*
X12355119Y-20529167D01*
X12364643Y-20548214D01*
X12364643Y-20652976D01*
X12364643Y-20548214D02*
X12374167Y-20529167D01*
X12393214Y-20519643D01*
X12421786Y-20519643D01*
X12440833Y-20529167D01*
X12450357Y-20548214D01*
X12450357Y-20652976D01*
X12840833Y-20443452D02*
X12669405Y-20700595D01*
X13097976Y-20452976D02*
X13117024Y-20452976D01*
X13136071Y-20462500D01*
X13145595Y-20472024D01*
X13155119Y-20491071D01*
X13164643Y-20529167D01*
X13164643Y-20576786D01*
X13155119Y-20614881D01*
X13145595Y-20633929D01*
X13136071Y-20643452D01*
X13117024Y-20652976D01*
X13097976Y-20652976D01*
X13078928Y-20643452D01*
X13069405Y-20633929D01*
X13059881Y-20614881D01*
X13050357Y-20576786D01*
X13050357Y-20529167D01*
X13059881Y-20491071D01*
X13069405Y-20472024D01*
X13078928Y-20462500D01*
X13097976Y-20452976D01*
X13250357Y-20633929D02*
X13259881Y-20643452D01*
X13250357Y-20652976D01*
X13240833Y-20643452D01*
X13250357Y-20633929D01*
X13250357Y-20652976D01*
X13383690Y-20452976D02*
X13402738Y-20452976D01*
X13421786Y-20462500D01*
X13431309Y-20472024D01*
X13440833Y-20491071D01*
X13450357Y-20529167D01*
X13450357Y-20576786D01*
X13440833Y-20614881D01*
X13431309Y-20633929D01*
X13421786Y-20643452D01*
X13402738Y-20652976D01*
X13383690Y-20652976D01*
X13364643Y-20643452D01*
X13355119Y-20633929D01*
X13345595Y-20614881D01*
X13336071Y-20576786D01*
X13336071Y-20529167D01*
X13345595Y-20491071D01*
X13355119Y-20472024D01*
X13364643Y-20462500D01*
X13383690Y-20452976D01*
X13621786Y-20519643D02*
X13621786Y-20652976D01*
X13574167Y-20443452D02*
X13526548Y-20586310D01*
X13650357Y-20586310D01*
X13707500Y-20452976D02*
X13831309Y-20452976D01*
X13764643Y-20529167D01*
X13793214Y-20529167D01*
X13812262Y-20538690D01*
X13821786Y-20548214D01*
X13831309Y-20567262D01*
X13831309Y-20614881D01*
X13821786Y-20633929D01*
X13812262Y-20643452D01*
X13793214Y-20652976D01*
X13736071Y-20652976D01*
X13717024Y-20643452D01*
X13707500Y-20633929D01*
X13897976Y-20452976D02*
X14021786Y-20452976D01*
X13955119Y-20529167D01*
X13983690Y-20529167D01*
X14002738Y-20538690D01*
X14012262Y-20548214D01*
X14021786Y-20567262D01*
X14021786Y-20614881D01*
X14012262Y-20633929D01*
X14002738Y-20643452D01*
X13983690Y-20652976D01*
X13926548Y-20652976D01*
X13907500Y-20643452D01*
X13897976Y-20633929D01*
X14097976Y-20452976D02*
X14097976Y-20491071D01*
X14174167Y-20452976D02*
X14174167Y-20491071D01*
X14469405Y-20729167D02*
X14459881Y-20719643D01*
X14440833Y-20691071D01*
X14431309Y-20672024D01*
X14421786Y-20643452D01*
X14412262Y-20595833D01*
X14412262Y-20557738D01*
X14421786Y-20510119D01*
X14431309Y-20481548D01*
X14440833Y-20462500D01*
X14459881Y-20433929D01*
X14469405Y-20424405D01*
X14631309Y-20519643D02*
X14631309Y-20652976D01*
X14583690Y-20443452D02*
X14536071Y-20586310D01*
X14659881Y-20586310D01*
X14888452Y-20652976D02*
X14888452Y-20452976D01*
X14974167Y-20652976D02*
X14974167Y-20548214D01*
X14964643Y-20529167D01*
X14945595Y-20519643D01*
X14917024Y-20519643D01*
X14897976Y-20529167D01*
X14888452Y-20538690D01*
X15097976Y-20652976D02*
X15078928Y-20643452D01*
X15069405Y-20633929D01*
X15059881Y-20614881D01*
X15059881Y-20557738D01*
X15069405Y-20538690D01*
X15078928Y-20529167D01*
X15097976Y-20519643D01*
X15126548Y-20519643D01*
X15145595Y-20529167D01*
X15155119Y-20538690D01*
X15164643Y-20557738D01*
X15164643Y-20614881D01*
X15155119Y-20633929D01*
X15145595Y-20643452D01*
X15126548Y-20652976D01*
X15097976Y-20652976D01*
X15278928Y-20652976D02*
X15259881Y-20643452D01*
X15250357Y-20624405D01*
X15250357Y-20452976D01*
X15431309Y-20643452D02*
X15412262Y-20652976D01*
X15374167Y-20652976D01*
X15355119Y-20643452D01*
X15345595Y-20624405D01*
X15345595Y-20548214D01*
X15355119Y-20529167D01*
X15374167Y-20519643D01*
X15412262Y-20519643D01*
X15431309Y-20529167D01*
X15440833Y-20548214D01*
X15440833Y-20567262D01*
X15345595Y-20586310D01*
X15517024Y-20643452D02*
X15536071Y-20652976D01*
X15574167Y-20652976D01*
X15593214Y-20643452D01*
X15602738Y-20624405D01*
X15602738Y-20614881D01*
X15593214Y-20595833D01*
X15574167Y-20586310D01*
X15545595Y-20586310D01*
X15526548Y-20576786D01*
X15517024Y-20557738D01*
X15517024Y-20548214D01*
X15526548Y-20529167D01*
X15545595Y-20519643D01*
X15574167Y-20519643D01*
X15593214Y-20529167D01*
X15669405Y-20729167D02*
X15678928Y-20719643D01*
X15697976Y-20691071D01*
X15707500Y-20672024D01*
X15717024Y-20643452D01*
X15726548Y-20595833D01*
X15726548Y-20557738D01*
X15717024Y-20510119D01*
X15707500Y-20481548D01*
X15697976Y-20462500D01*
X15678928Y-20433929D01*
X15669405Y-20424405D01*
D18*
X10767500Y-20761500D02*
X10897500Y-20891500D01*
X10897500Y-20761500D02*
X10767500Y-20891500D01*
X10832500Y-20761500D02*
X10832500Y-20891500D01*
X10767500Y-20826500D02*
X10897500Y-20826500D01*
D11*
X11259881Y-20916976D02*
X11145595Y-20916976D01*
X11202738Y-20916976D02*
X11202738Y-20716976D01*
X11183690Y-20745548D01*
X11164643Y-20764595D01*
X11145595Y-20774119D01*
X11345595Y-20897929D02*
X11355119Y-20907452D01*
X11345595Y-20916976D01*
X11336071Y-20907452D01*
X11345595Y-20897929D01*
X11345595Y-20916976D01*
X11421786Y-20716976D02*
X11545595Y-20716976D01*
X11478928Y-20793167D01*
X11507500Y-20793167D01*
X11526548Y-20802690D01*
X11536071Y-20812214D01*
X11545595Y-20831262D01*
X11545595Y-20878881D01*
X11536071Y-20897929D01*
X11526548Y-20907452D01*
X11507500Y-20916976D01*
X11450357Y-20916976D01*
X11431309Y-20907452D01*
X11421786Y-20897929D01*
X11669405Y-20716976D02*
X11688452Y-20716976D01*
X11707500Y-20726500D01*
X11717024Y-20736024D01*
X11726548Y-20755071D01*
X11736071Y-20793167D01*
X11736071Y-20840786D01*
X11726548Y-20878881D01*
X11717024Y-20897929D01*
X11707500Y-20907452D01*
X11688452Y-20916976D01*
X11669405Y-20916976D01*
X11650357Y-20907452D01*
X11640833Y-20897929D01*
X11631309Y-20878881D01*
X11621786Y-20840786D01*
X11621786Y-20793167D01*
X11631309Y-20755071D01*
X11640833Y-20736024D01*
X11650357Y-20726500D01*
X11669405Y-20716976D01*
X11859881Y-20716976D02*
X11878928Y-20716976D01*
X11897976Y-20726500D01*
X11907500Y-20736024D01*
X11917024Y-20755071D01*
X11926548Y-20793167D01*
X11926548Y-20840786D01*
X11917024Y-20878881D01*
X11907500Y-20897929D01*
X11897976Y-20907452D01*
X11878928Y-20916976D01*
X11859881Y-20916976D01*
X11840833Y-20907452D01*
X11831309Y-20897929D01*
X11821786Y-20878881D01*
X11812262Y-20840786D01*
X11812262Y-20793167D01*
X11821786Y-20755071D01*
X11831309Y-20736024D01*
X11840833Y-20726500D01*
X11859881Y-20716976D01*
X12012262Y-20916976D02*
X12012262Y-20783643D01*
X12012262Y-20802690D02*
X12021786Y-20793167D01*
X12040833Y-20783643D01*
X12069405Y-20783643D01*
X12088452Y-20793167D01*
X12097976Y-20812214D01*
X12097976Y-20916976D01*
X12097976Y-20812214D02*
X12107500Y-20793167D01*
X12126548Y-20783643D01*
X12155119Y-20783643D01*
X12174167Y-20793167D01*
X12183690Y-20812214D01*
X12183690Y-20916976D01*
X12278928Y-20916976D02*
X12278928Y-20783643D01*
X12278928Y-20802690D02*
X12288452Y-20793167D01*
X12307500Y-20783643D01*
X12336071Y-20783643D01*
X12355119Y-20793167D01*
X12364643Y-20812214D01*
X12364643Y-20916976D01*
X12364643Y-20812214D02*
X12374167Y-20793167D01*
X12393214Y-20783643D01*
X12421786Y-20783643D01*
X12440833Y-20793167D01*
X12450357Y-20812214D01*
X12450357Y-20916976D01*
X12840833Y-20707452D02*
X12669405Y-20964595D01*
X13097976Y-20716976D02*
X13117024Y-20716976D01*
X13136071Y-20726500D01*
X13145595Y-20736024D01*
X13155119Y-20755071D01*
X13164643Y-20793167D01*
X13164643Y-20840786D01*
X13155119Y-20878881D01*
X13145595Y-20897929D01*
X13136071Y-20907452D01*
X13117024Y-20916976D01*
X13097976Y-20916976D01*
X13078928Y-20907452D01*
X13069405Y-20897929D01*
X13059881Y-20878881D01*
X13050357Y-20840786D01*
X13050357Y-20793167D01*
X13059881Y-20755071D01*
X13069405Y-20736024D01*
X13078928Y-20726500D01*
X13097976Y-20716976D01*
X13250357Y-20897929D02*
X13259881Y-20907452D01*
X13250357Y-20916976D01*
X13240833Y-20907452D01*
X13250357Y-20897929D01*
X13250357Y-20916976D01*
X13383690Y-20716976D02*
X13402738Y-20716976D01*
X13421786Y-20726500D01*
X13431309Y-20736024D01*
X13440833Y-20755071D01*
X13450357Y-20793167D01*
X13450357Y-20840786D01*
X13440833Y-20878881D01*
X13431309Y-20897929D01*
X13421786Y-20907452D01*
X13402738Y-20916976D01*
X13383690Y-20916976D01*
X13364643Y-20907452D01*
X13355119Y-20897929D01*
X13345595Y-20878881D01*
X13336071Y-20840786D01*
X13336071Y-20793167D01*
X13345595Y-20755071D01*
X13355119Y-20736024D01*
X13364643Y-20726500D01*
X13383690Y-20716976D01*
X13631309Y-20716976D02*
X13536071Y-20716976D01*
X13526548Y-20812214D01*
X13536071Y-20802690D01*
X13555119Y-20793167D01*
X13602738Y-20793167D01*
X13621786Y-20802690D01*
X13631309Y-20812214D01*
X13640833Y-20831262D01*
X13640833Y-20878881D01*
X13631309Y-20897929D01*
X13621786Y-20907452D01*
X13602738Y-20916976D01*
X13555119Y-20916976D01*
X13536071Y-20907452D01*
X13526548Y-20897929D01*
X13831309Y-20916976D02*
X13717024Y-20916976D01*
X13774167Y-20916976D02*
X13774167Y-20716976D01*
X13755119Y-20745548D01*
X13736071Y-20764595D01*
X13717024Y-20774119D01*
X13907500Y-20736024D02*
X13917024Y-20726500D01*
X13936071Y-20716976D01*
X13983690Y-20716976D01*
X14002738Y-20726500D01*
X14012262Y-20736024D01*
X14021786Y-20755071D01*
X14021786Y-20774119D01*
X14012262Y-20802690D01*
X13897976Y-20916976D01*
X14021786Y-20916976D01*
X14097976Y-20716976D02*
X14097976Y-20755071D01*
X14174167Y-20716976D02*
X14174167Y-20755071D01*
X14469405Y-20993167D02*
X14459881Y-20983643D01*
X14440833Y-20955071D01*
X14431309Y-20936024D01*
X14421786Y-20907452D01*
X14412262Y-20859833D01*
X14412262Y-20821738D01*
X14421786Y-20774119D01*
X14431309Y-20745548D01*
X14440833Y-20726500D01*
X14459881Y-20697929D01*
X14469405Y-20688405D01*
X14536071Y-20736024D02*
X14545595Y-20726500D01*
X14564643Y-20716976D01*
X14612262Y-20716976D01*
X14631309Y-20726500D01*
X14640833Y-20736024D01*
X14650357Y-20755071D01*
X14650357Y-20774119D01*
X14640833Y-20802690D01*
X14526548Y-20916976D01*
X14650357Y-20916976D01*
X14840833Y-20916976D02*
X14726548Y-20916976D01*
X14783690Y-20916976D02*
X14783690Y-20716976D01*
X14764643Y-20745548D01*
X14745595Y-20764595D01*
X14726548Y-20774119D01*
X15078928Y-20916976D02*
X15078928Y-20716976D01*
X15164643Y-20916976D02*
X15164643Y-20812214D01*
X15155119Y-20793167D01*
X15136071Y-20783643D01*
X15107500Y-20783643D01*
X15088452Y-20793167D01*
X15078928Y-20802690D01*
X15288452Y-20916976D02*
X15269405Y-20907452D01*
X15259881Y-20897929D01*
X15250357Y-20878881D01*
X15250357Y-20821738D01*
X15259881Y-20802690D01*
X15269405Y-20793167D01*
X15288452Y-20783643D01*
X15317024Y-20783643D01*
X15336071Y-20793167D01*
X15345595Y-20802690D01*
X15355119Y-20821738D01*
X15355119Y-20878881D01*
X15345595Y-20897929D01*
X15336071Y-20907452D01*
X15317024Y-20916976D01*
X15288452Y-20916976D01*
X15469405Y-20916976D02*
X15450357Y-20907452D01*
X15440833Y-20888405D01*
X15440833Y-20716976D01*
X15621786Y-20907452D02*
X15602738Y-20916976D01*
X15564643Y-20916976D01*
X15545595Y-20907452D01*
X15536071Y-20888405D01*
X15536071Y-20812214D01*
X15545595Y-20793167D01*
X15564643Y-20783643D01*
X15602738Y-20783643D01*
X15621786Y-20793167D01*
X15631309Y-20812214D01*
X15631309Y-20831262D01*
X15536071Y-20850310D01*
X15707500Y-20907452D02*
X15726548Y-20916976D01*
X15764643Y-20916976D01*
X15783690Y-20907452D01*
X15793214Y-20888405D01*
X15793214Y-20878881D01*
X15783690Y-20859833D01*
X15764643Y-20850310D01*
X15736071Y-20850310D01*
X15717024Y-20840786D01*
X15707500Y-20821738D01*
X15707500Y-20812214D01*
X15717024Y-20793167D01*
X15736071Y-20783643D01*
X15764643Y-20783643D01*
X15783690Y-20793167D01*
X15859881Y-20993167D02*
X15869405Y-20983643D01*
X15888452Y-20955071D01*
X15897976Y-20936024D01*
X15907500Y-20907452D01*
X15917024Y-20859833D01*
X15917024Y-20821738D01*
X15907500Y-20774119D01*
X15897976Y-20745548D01*
X15888452Y-20726500D01*
X15869405Y-20697929D01*
X15859881Y-20688405D01*
M02*
