G04 #@! TF.GenerationSoftware,KiCad,Pcbnew,6.0.6-3a73a75311~116~ubuntu20.04.1*
G04 #@! TF.CreationDate,2022-07-16T23:38:47+01:00*
G04 #@! TF.ProjectId,555kick,3535356b-6963-46b2-9e6b-696361645f70,rev?*
G04 #@! TF.SameCoordinates,Original*
G04 #@! TF.FileFunction,Soldermask,Bot*
G04 #@! TF.FilePolarity,Negative*
%FSLAX46Y46*%
G04 Gerber Fmt 4.6, Leading zero omitted, Abs format (unit mm)*
G04 Created by KiCad (PCBNEW 6.0.6-3a73a75311~116~ubuntu20.04.1) date 2022-07-16 23:38:47*
%MOMM*%
%LPD*%
G01*
G04 APERTURE LIST*
G04 Aperture macros list*
%AMRoundRect*
0 Rectangle with rounded corners*
0 $1 Rounding radius*
0 $2 $3 $4 $5 $6 $7 $8 $9 X,Y pos of 4 corners*
0 Add a 4 corners polygon primitive as box body*
4,1,4,$2,$3,$4,$5,$6,$7,$8,$9,$2,$3,0*
0 Add four circle primitives for the rounded corners*
1,1,$1+$1,$2,$3*
1,1,$1+$1,$4,$5*
1,1,$1+$1,$6,$7*
1,1,$1+$1,$8,$9*
0 Add four rect primitives between the rounded corners*
20,1,$1+$1,$2,$3,$4,$5,0*
20,1,$1+$1,$4,$5,$6,$7,0*
20,1,$1+$1,$6,$7,$8,$9,0*
20,1,$1+$1,$8,$9,$2,$3,0*%
G04 Aperture macros list end*
%ADD10O,1.600000X1.600000*%
%ADD11R,1.600000X1.600000*%
%ADD12C,2.340000*%
%ADD13C,1.600000*%
%ADD14C,1.200000*%
%ADD15R,1.200000X1.200000*%
%ADD16C,1.800000*%
%ADD17R,1.800000X1.800000*%
%ADD18O,2.200000X2.200000*%
%ADD19R,2.200000X2.200000*%
%ADD20R,1.700000X1.700000*%
%ADD21O,1.700000X1.700000*%
%ADD22RoundRect,0.250000X0.600000X0.600000X-0.600000X0.600000X-0.600000X-0.600000X0.600000X-0.600000X0*%
%ADD23C,1.700000*%
%ADD24C,1.500000*%
%ADD25R,1.500000X1.500000*%
%ADD26O,1.400000X1.400000*%
%ADD27C,1.400000*%
G04 APERTURE END LIST*
D10*
X137620000Y-49500000D03*
X137620000Y-52040000D03*
X137620000Y-54580000D03*
X137620000Y-57120000D03*
X130000000Y-57120000D03*
X130000000Y-54580000D03*
X130000000Y-52040000D03*
D11*
X130000000Y-49500000D03*
D12*
X112500000Y-139500000D03*
X112500000Y-134500000D03*
X112500000Y-129500000D03*
X112500000Y-109500000D03*
X112500000Y-114500000D03*
X112500000Y-119500000D03*
D13*
X149000000Y-61500000D03*
X146500000Y-61500000D03*
D14*
X163000000Y-84000000D03*
D15*
X161000000Y-84000000D03*
D14*
X163000000Y-115500000D03*
D15*
X161000000Y-115500000D03*
D13*
X145000000Y-57000000D03*
X142500000Y-57000000D03*
X142000000Y-65000000D03*
X137000000Y-65000000D03*
X152000000Y-159500000D03*
X149500000Y-159500000D03*
X132000000Y-167000000D03*
X132000000Y-164500000D03*
X132500000Y-74500000D03*
X132500000Y-77000000D03*
X155000000Y-82000000D03*
X152500000Y-82000000D03*
X158500000Y-127000000D03*
X156000000Y-127000000D03*
X137500000Y-137000000D03*
X135000000Y-137000000D03*
X144000000Y-144000000D03*
X149000000Y-144000000D03*
X125000000Y-142000000D03*
X125000000Y-139500000D03*
X125000000Y-119500000D03*
X122500000Y-119500000D03*
X142500000Y-119500000D03*
X142500000Y-124500000D03*
X152500000Y-99500000D03*
X152500000Y-102000000D03*
D16*
X137540000Y-94500000D03*
D17*
X135000000Y-94500000D03*
D18*
X132660000Y-87000000D03*
D19*
X122500000Y-87000000D03*
D18*
X132660000Y-102000000D03*
D19*
X122500000Y-102000000D03*
D12*
X112500000Y-59500000D03*
X112500000Y-54500000D03*
X112500000Y-49500000D03*
X112500000Y-79500000D03*
X112500000Y-74500000D03*
X112500000Y-69500000D03*
D20*
X160000000Y-57000000D03*
D21*
X157460000Y-57000000D03*
D22*
X162000000Y-104500000D03*
D23*
X159460000Y-104500000D03*
X162000000Y-101960000D03*
X159460000Y-101960000D03*
X162000000Y-99420000D03*
X159460000Y-99420000D03*
X162000000Y-96880000D03*
X159460000Y-96880000D03*
X162000000Y-94340000D03*
X159460000Y-94340000D03*
D21*
X157000000Y-161920000D03*
D20*
X157000000Y-164460000D03*
D12*
X112500000Y-179500000D03*
X112500000Y-174500000D03*
X112500000Y-169500000D03*
X112500000Y-159500000D03*
X112500000Y-154500000D03*
X112500000Y-149500000D03*
X112500000Y-99500000D03*
X112500000Y-94500000D03*
X112500000Y-89500000D03*
D24*
X151040000Y-50770000D03*
X148500000Y-48230000D03*
D25*
X145960000Y-50770000D03*
D24*
X150080000Y-99500000D03*
X147540000Y-96960000D03*
D25*
X145000000Y-99500000D03*
X140960000Y-112270000D03*
D24*
X143500000Y-109730000D03*
X146040000Y-112270000D03*
X128040000Y-64000000D03*
X125500000Y-61460000D03*
D25*
X122960000Y-64000000D03*
D26*
X154960000Y-49500000D03*
D27*
X157500000Y-49500000D03*
D26*
X152500000Y-57000000D03*
D27*
X149960000Y-57000000D03*
D26*
X125000000Y-46960000D03*
D27*
X125000000Y-49500000D03*
D26*
X152040000Y-166000000D03*
D27*
X149500000Y-166000000D03*
D26*
X145000000Y-89500000D03*
D27*
X147540000Y-89500000D03*
D26*
X138540000Y-153000000D03*
D27*
X136000000Y-153000000D03*
D26*
X132040000Y-159500000D03*
D27*
X129500000Y-159500000D03*
D26*
X152500000Y-74460000D03*
D27*
X152500000Y-77000000D03*
D26*
X127460000Y-134500000D03*
D27*
X130000000Y-134500000D03*
D26*
X121960000Y-162000000D03*
D27*
X124500000Y-162000000D03*
D26*
X155000000Y-131960000D03*
D27*
X155000000Y-134500000D03*
D26*
X122460000Y-82000000D03*
D27*
X125000000Y-82000000D03*
D26*
X158540000Y-139000000D03*
D27*
X156000000Y-139000000D03*
D26*
X130040000Y-109500000D03*
D27*
X127500000Y-109500000D03*
D26*
X140000000Y-101960000D03*
D27*
X140000000Y-104500000D03*
D26*
X152500000Y-89460000D03*
D27*
X152500000Y-92000000D03*
D26*
X137500000Y-129460000D03*
D27*
X137500000Y-132000000D03*
D26*
X140040000Y-87000000D03*
D27*
X137500000Y-87000000D03*
D26*
X152500000Y-112040000D03*
D27*
X152500000Y-109500000D03*
D26*
X150040000Y-122000000D03*
D27*
X147500000Y-122000000D03*
D26*
X141960000Y-70000000D03*
D27*
X144500000Y-70000000D03*
D21*
X151500000Y-70040000D03*
D20*
X151500000Y-67500000D03*
D10*
X144620000Y-159500000D03*
X144620000Y-162040000D03*
X144620000Y-164580000D03*
X144620000Y-167120000D03*
X137000000Y-167120000D03*
X137000000Y-164580000D03*
X137000000Y-162040000D03*
D11*
X137000000Y-159500000D03*
D10*
X150120000Y-129500000D03*
X150120000Y-132040000D03*
X150120000Y-134580000D03*
X150120000Y-137120000D03*
X142500000Y-137120000D03*
X142500000Y-134580000D03*
X142500000Y-132040000D03*
D11*
X142500000Y-129500000D03*
D10*
X147620000Y-74500000D03*
X147620000Y-77040000D03*
X147620000Y-79580000D03*
X147620000Y-82120000D03*
X140000000Y-82120000D03*
X140000000Y-79580000D03*
X140000000Y-77040000D03*
D11*
X140000000Y-74500000D03*
M02*
